<svg xmlns="http://www.w3.org/2000/svg" xmlns:xlink="http://www.w3.org/1999/xlink" width="600" height="400" viewBox="0 0 2400 1600">
<defs>
  <clipPath id="clip440">
    <rect x="0" y="0" width="2400" height="1600"></rect>
  </clipPath>
</defs>
<path clip-path="url(#clip440)" d="M0 1600 L2400 1600 L2400 0 L0 0  Z" fill="#ffffff" fill-rule="evenodd" fill-opacity="1"></path>
<defs>
  <clipPath id="clip441">
    <rect x="480" y="0" width="1681" height="1600"></rect>
  </clipPath>
</defs>
<path clip-path="url(#clip440)" d="M224.098 1486.45 L2352.76 1486.45 L2352.76 47.2441 L224.098 47.2441  Z" fill="#ffffff" fill-rule="evenodd" fill-opacity="1"></path>
<defs>
  <clipPath id="clip442">
    <rect x="224" y="47" width="2130" height="1440"></rect>
  </clipPath>
</defs>
<polyline clip-path="url(#clip442)" style="stroke:#000000; stroke-linecap:round; stroke-linejoin:round; stroke-width:2; stroke-opacity:0.1; fill:none" points="284.343,1486.45 284.343,47.2441 "></polyline>
<polyline clip-path="url(#clip442)" style="stroke:#000000; stroke-linecap:round; stroke-linejoin:round; stroke-width:2; stroke-opacity:0.1; fill:none" points="630.579,1486.45 630.579,47.2441 "></polyline>
<polyline clip-path="url(#clip442)" style="stroke:#000000; stroke-linecap:round; stroke-linejoin:round; stroke-width:2; stroke-opacity:0.1; fill:none" points="976.815,1486.45 976.815,47.2441 "></polyline>
<polyline clip-path="url(#clip442)" style="stroke:#000000; stroke-linecap:round; stroke-linejoin:round; stroke-width:2; stroke-opacity:0.1; fill:none" points="1323.05,1486.45 1323.05,47.2441 "></polyline>
<polyline clip-path="url(#clip442)" style="stroke:#000000; stroke-linecap:round; stroke-linejoin:round; stroke-width:2; stroke-opacity:0.1; fill:none" points="1669.29,1486.45 1669.29,47.2441 "></polyline>
<polyline clip-path="url(#clip442)" style="stroke:#000000; stroke-linecap:round; stroke-linejoin:round; stroke-width:2; stroke-opacity:0.1; fill:none" points="2015.52,1486.45 2015.52,47.2441 "></polyline>
<polyline clip-path="url(#clip442)" style="stroke:#000000; stroke-linecap:round; stroke-linejoin:round; stroke-width:2; stroke-opacity:0.1; fill:none" points="224.098,1356.78 2352.76,1356.78 "></polyline>
<polyline clip-path="url(#clip442)" style="stroke:#000000; stroke-linecap:round; stroke-linejoin:round; stroke-width:2; stroke-opacity:0.1; fill:none" points="224.098,1151.24 2352.76,1151.24 "></polyline>
<polyline clip-path="url(#clip442)" style="stroke:#000000; stroke-linecap:round; stroke-linejoin:round; stroke-width:2; stroke-opacity:0.1; fill:none" points="224.098,945.711 2352.76,945.711 "></polyline>
<polyline clip-path="url(#clip442)" style="stroke:#000000; stroke-linecap:round; stroke-linejoin:round; stroke-width:2; stroke-opacity:0.1; fill:none" points="224.098,740.177 2352.76,740.177 "></polyline>
<polyline clip-path="url(#clip442)" style="stroke:#000000; stroke-linecap:round; stroke-linejoin:round; stroke-width:2; stroke-opacity:0.1; fill:none" points="224.098,534.644 2352.76,534.644 "></polyline>
<polyline clip-path="url(#clip442)" style="stroke:#000000; stroke-linecap:round; stroke-linejoin:round; stroke-width:2; stroke-opacity:0.1; fill:none" points="224.098,329.11 2352.76,329.11 "></polyline>
<polyline clip-path="url(#clip442)" style="stroke:#000000; stroke-linecap:round; stroke-linejoin:round; stroke-width:2; stroke-opacity:0.1; fill:none" points="224.098,123.577 2352.76,123.577 "></polyline>
<polyline clip-path="url(#clip440)" style="stroke:#000000; stroke-linecap:round; stroke-linejoin:round; stroke-width:4; stroke-opacity:1; fill:none" points="224.098,1486.45 2352.76,1486.45 "></polyline>
<polyline clip-path="url(#clip440)" style="stroke:#000000; stroke-linecap:round; stroke-linejoin:round; stroke-width:4; stroke-opacity:1; fill:none" points="284.343,1486.45 284.343,1467.55 "></polyline>
<polyline clip-path="url(#clip440)" style="stroke:#000000; stroke-linecap:round; stroke-linejoin:round; stroke-width:4; stroke-opacity:1; fill:none" points="630.579,1486.45 630.579,1467.55 "></polyline>
<polyline clip-path="url(#clip440)" style="stroke:#000000; stroke-linecap:round; stroke-linejoin:round; stroke-width:4; stroke-opacity:1; fill:none" points="976.815,1486.45 976.815,1467.55 "></polyline>
<polyline clip-path="url(#clip440)" style="stroke:#000000; stroke-linecap:round; stroke-linejoin:round; stroke-width:4; stroke-opacity:1; fill:none" points="1323.05,1486.45 1323.05,1467.55 "></polyline>
<polyline clip-path="url(#clip440)" style="stroke:#000000; stroke-linecap:round; stroke-linejoin:round; stroke-width:4; stroke-opacity:1; fill:none" points="1669.29,1486.45 1669.29,1467.55 "></polyline>
<polyline clip-path="url(#clip440)" style="stroke:#000000; stroke-linecap:round; stroke-linejoin:round; stroke-width:4; stroke-opacity:1; fill:none" points="2015.52,1486.45 2015.52,1467.55 "></polyline>
<path clip-path="url(#clip440)" d="M284.343 1517.37 Q280.732 1517.37 278.903 1520.93 Q277.098 1524.47 277.098 1531.6 Q277.098 1538.71 278.903 1542.27 Q280.732 1545.82 284.343 1545.82 Q287.977 1545.82 289.783 1542.27 Q291.611 1538.71 291.611 1531.6 Q291.611 1524.47 289.783 1520.93 Q287.977 1517.37 284.343 1517.37 M284.343 1513.66 Q290.153 1513.66 293.209 1518.27 Q296.287 1522.85 296.287 1531.6 Q296.287 1540.33 293.209 1544.94 Q290.153 1549.52 284.343 1549.52 Q278.533 1549.52 275.454 1544.94 Q272.399 1540.33 272.399 1531.6 Q272.399 1522.85 275.454 1518.27 Q278.533 1513.66 284.343 1513.66 Z" fill="#000000" fill-rule="nonzero" fill-opacity="1"></path><path clip-path="url(#clip440)" d="M620.857 1514.29 L639.213 1514.29 L639.213 1518.22 L625.139 1518.22 L625.139 1526.7 Q626.157 1526.35 627.176 1526.19 Q628.195 1526 629.213 1526 Q635 1526 638.38 1529.17 Q641.759 1532.34 641.759 1537.76 Q641.759 1543.34 638.287 1546.44 Q634.815 1549.52 628.495 1549.52 Q626.32 1549.52 624.051 1549.15 Q621.806 1548.78 619.398 1548.04 L619.398 1543.34 Q621.482 1544.47 623.704 1545.03 Q625.926 1545.58 628.403 1545.58 Q632.407 1545.58 634.745 1543.48 Q637.083 1541.37 637.083 1537.76 Q637.083 1534.15 634.745 1532.04 Q632.407 1529.94 628.403 1529.94 Q626.528 1529.94 624.653 1530.35 Q622.801 1530.77 620.857 1531.65 L620.857 1514.29 Z" fill="#000000" fill-rule="nonzero" fill-opacity="1"></path><path clip-path="url(#clip440)" d="M951.502 1544.91 L959.141 1544.91 L959.141 1518.55 L950.831 1520.21 L950.831 1515.95 L959.095 1514.29 L963.771 1514.29 L963.771 1544.91 L971.41 1544.91 L971.41 1548.85 L951.502 1548.85 L951.502 1544.91 Z" fill="#000000" fill-rule="nonzero" fill-opacity="1"></path><path clip-path="url(#clip440)" d="M990.854 1517.37 Q987.243 1517.37 985.414 1520.93 Q983.609 1524.47 983.609 1531.6 Q983.609 1538.71 985.414 1542.27 Q987.243 1545.82 990.854 1545.82 Q994.488 1545.82 996.294 1542.27 Q998.122 1538.71 998.122 1531.6 Q998.122 1524.47 996.294 1520.93 Q994.488 1517.37 990.854 1517.37 M990.854 1513.66 Q996.664 1513.66 999.72 1518.27 Q1002.8 1522.85 1002.8 1531.6 Q1002.8 1540.33 999.72 1544.94 Q996.664 1549.52 990.854 1549.52 Q985.044 1549.52 981.965 1544.94 Q978.91 1540.33 978.91 1531.6 Q978.91 1522.85 981.965 1518.27 Q985.044 1513.66 990.854 1513.66 Z" fill="#000000" fill-rule="nonzero" fill-opacity="1"></path><path clip-path="url(#clip440)" d="M1298.24 1544.91 L1305.87 1544.91 L1305.87 1518.55 L1297.56 1520.21 L1297.56 1515.95 L1305.83 1514.29 L1310.5 1514.29 L1310.5 1544.91 L1318.14 1544.91 L1318.14 1548.85 L1298.24 1548.85 L1298.24 1544.91 Z" fill="#000000" fill-rule="nonzero" fill-opacity="1"></path><path clip-path="url(#clip440)" d="M1327.63 1514.29 L1345.99 1514.29 L1345.99 1518.22 L1331.92 1518.22 L1331.92 1526.7 Q1332.93 1526.35 1333.95 1526.19 Q1334.97 1526 1335.99 1526 Q1341.78 1526 1345.16 1529.17 Q1348.54 1532.34 1348.54 1537.76 Q1348.54 1543.34 1345.06 1546.44 Q1341.59 1549.52 1335.27 1549.52 Q1333.1 1549.52 1330.83 1549.15 Q1328.58 1548.78 1326.18 1548.04 L1326.18 1543.34 Q1328.26 1544.47 1330.48 1545.03 Q1332.7 1545.58 1335.18 1545.58 Q1339.18 1545.58 1341.52 1543.48 Q1343.86 1541.37 1343.86 1537.76 Q1343.86 1534.15 1341.52 1532.04 Q1339.18 1529.94 1335.18 1529.94 Q1333.31 1529.94 1331.43 1530.35 Q1329.58 1530.77 1327.63 1531.65 L1327.63 1514.29 Z" fill="#000000" fill-rule="nonzero" fill-opacity="1"></path><path clip-path="url(#clip440)" d="M1648.06 1544.91 L1664.38 1544.91 L1664.38 1548.85 L1642.43 1548.85 L1642.43 1544.91 Q1645.1 1542.16 1649.68 1537.53 Q1654.29 1532.88 1655.47 1531.53 Q1657.71 1529.01 1658.59 1527.27 Q1659.49 1525.51 1659.49 1523.82 Q1659.49 1521.07 1657.55 1519.33 Q1655.63 1517.6 1652.53 1517.6 Q1650.33 1517.6 1647.87 1518.36 Q1645.44 1519.13 1642.67 1520.68 L1642.67 1515.95 Q1645.49 1514.82 1647.94 1514.24 Q1650.4 1513.66 1652.43 1513.66 Q1657.8 1513.66 1661 1516.35 Q1664.19 1519.03 1664.19 1523.52 Q1664.19 1525.65 1663.38 1527.57 Q1662.6 1529.47 1660.49 1532.07 Q1659.91 1532.74 1656.81 1535.95 Q1653.71 1539.15 1648.06 1544.91 Z" fill="#000000" fill-rule="nonzero" fill-opacity="1"></path><path clip-path="url(#clip440)" d="M1684.19 1517.37 Q1680.58 1517.37 1678.75 1520.93 Q1676.95 1524.47 1676.95 1531.6 Q1676.95 1538.71 1678.75 1542.27 Q1680.58 1545.82 1684.19 1545.82 Q1687.83 1545.82 1689.63 1542.27 Q1691.46 1538.71 1691.46 1531.6 Q1691.46 1524.47 1689.63 1520.93 Q1687.83 1517.37 1684.19 1517.37 M1684.19 1513.66 Q1690 1513.66 1693.06 1518.27 Q1696.14 1522.85 1696.14 1531.6 Q1696.14 1540.33 1693.06 1544.94 Q1690 1549.52 1684.19 1549.52 Q1678.38 1549.52 1675.3 1544.94 Q1672.25 1540.33 1672.25 1531.6 Q1672.25 1522.85 1675.3 1518.27 Q1678.38 1513.66 1684.19 1513.66 Z" fill="#000000" fill-rule="nonzero" fill-opacity="1"></path><path clip-path="url(#clip440)" d="M1994.79 1544.91 L2011.11 1544.91 L2011.11 1548.85 L1989.17 1548.85 L1989.17 1544.91 Q1991.83 1542.16 1996.41 1537.53 Q2001.02 1532.88 2002.2 1531.53 Q2004.45 1529.01 2005.33 1527.27 Q2006.23 1525.51 2006.23 1523.82 Q2006.23 1521.07 2004.28 1519.33 Q2002.36 1517.6 1999.26 1517.6 Q1997.06 1517.6 1994.61 1518.36 Q1992.18 1519.13 1989.4 1520.68 L1989.4 1515.95 Q1992.22 1514.82 1994.68 1514.24 Q1997.13 1513.66 1999.17 1513.66 Q2004.54 1513.66 2007.73 1516.35 Q2010.93 1519.03 2010.93 1523.52 Q2010.93 1525.65 2010.12 1527.57 Q2009.33 1529.47 2007.22 1532.07 Q2006.64 1532.74 2003.54 1535.95 Q2000.44 1539.15 1994.79 1544.91 Z" fill="#000000" fill-rule="nonzero" fill-opacity="1"></path><path clip-path="url(#clip440)" d="M2020.97 1514.29 L2039.33 1514.29 L2039.33 1518.22 L2025.26 1518.22 L2025.26 1526.7 Q2026.27 1526.35 2027.29 1526.19 Q2028.31 1526 2029.33 1526 Q2035.12 1526 2038.5 1529.17 Q2041.88 1532.34 2041.88 1537.76 Q2041.88 1543.34 2038.4 1546.44 Q2034.93 1549.52 2028.61 1549.52 Q2026.44 1549.52 2024.17 1549.15 Q2021.92 1548.78 2019.52 1548.04 L2019.52 1543.34 Q2021.6 1544.47 2023.82 1545.03 Q2026.04 1545.58 2028.52 1545.58 Q2032.52 1545.58 2034.86 1543.48 Q2037.2 1541.37 2037.2 1537.76 Q2037.2 1534.15 2034.86 1532.04 Q2032.52 1529.94 2028.52 1529.94 Q2026.64 1529.94 2024.77 1530.35 Q2022.92 1530.77 2020.97 1531.65 L2020.97 1514.29 Z" fill="#000000" fill-rule="nonzero" fill-opacity="1"></path><polyline clip-path="url(#clip440)" style="stroke:#000000; stroke-linecap:round; stroke-linejoin:round; stroke-width:4; stroke-opacity:1; fill:none" points="224.098,1486.45 224.098,47.2441 "></polyline>
<polyline clip-path="url(#clip440)" style="stroke:#000000; stroke-linecap:round; stroke-linejoin:round; stroke-width:4; stroke-opacity:1; fill:none" points="224.098,1356.78 242.996,1356.78 "></polyline>
<polyline clip-path="url(#clip440)" style="stroke:#000000; stroke-linecap:round; stroke-linejoin:round; stroke-width:4; stroke-opacity:1; fill:none" points="224.098,1151.24 242.996,1151.24 "></polyline>
<polyline clip-path="url(#clip440)" style="stroke:#000000; stroke-linecap:round; stroke-linejoin:round; stroke-width:4; stroke-opacity:1; fill:none" points="224.098,945.711 242.996,945.711 "></polyline>
<polyline clip-path="url(#clip440)" style="stroke:#000000; stroke-linecap:round; stroke-linejoin:round; stroke-width:4; stroke-opacity:1; fill:none" points="224.098,740.177 242.996,740.177 "></polyline>
<polyline clip-path="url(#clip440)" style="stroke:#000000; stroke-linecap:round; stroke-linejoin:round; stroke-width:4; stroke-opacity:1; fill:none" points="224.098,534.644 242.996,534.644 "></polyline>
<polyline clip-path="url(#clip440)" style="stroke:#000000; stroke-linecap:round; stroke-linejoin:round; stroke-width:4; stroke-opacity:1; fill:none" points="224.098,329.11 242.996,329.11 "></polyline>
<polyline clip-path="url(#clip440)" style="stroke:#000000; stroke-linecap:round; stroke-linejoin:round; stroke-width:4; stroke-opacity:1; fill:none" points="224.098,123.577 242.996,123.577 "></polyline>
<path clip-path="url(#clip440)" d="M51.9875 1357.23 L81.6633 1357.23 L81.6633 1361.16 L51.9875 1361.16 L51.9875 1357.23 Z" fill="#000000" fill-rule="nonzero" fill-opacity="1"></path><path clip-path="url(#clip440)" d="M101.756 1342.58 Q98.1447 1342.58 96.316 1346.14 Q94.5104 1349.68 94.5104 1356.81 Q94.5104 1363.92 96.316 1367.48 Q98.1447 1371.03 101.756 1371.03 Q105.39 1371.03 107.196 1367.48 Q109.024 1363.92 109.024 1356.81 Q109.024 1349.68 107.196 1346.14 Q105.39 1342.58 101.756 1342.58 M101.756 1338.87 Q107.566 1338.87 110.621 1343.48 Q113.7 1348.06 113.7 1356.81 Q113.7 1365.54 110.621 1370.15 Q107.566 1374.73 101.756 1374.73 Q95.9456 1374.73 92.8669 1370.15 Q89.8114 1365.54 89.8114 1356.81 Q89.8114 1348.06 92.8669 1343.48 Q95.9456 1338.87 101.756 1338.87 Z" fill="#000000" fill-rule="nonzero" fill-opacity="1"></path><path clip-path="url(#clip440)" d="M121.918 1368.18 L126.802 1368.18 L126.802 1374.06 L121.918 1374.06 L121.918 1368.18 Z" fill="#000000" fill-rule="nonzero" fill-opacity="1"></path><path clip-path="url(#clip440)" d="M135.806 1339.5 L158.029 1339.5 L158.029 1341.49 L145.482 1374.06 L140.598 1374.06 L152.404 1343.43 L135.806 1343.43 L135.806 1339.5 Z" fill="#000000" fill-rule="nonzero" fill-opacity="1"></path><path clip-path="url(#clip440)" d="M167.195 1339.5 L185.552 1339.5 L185.552 1343.43 L171.478 1343.43 L171.478 1351.91 Q172.496 1351.56 173.515 1351.4 Q174.533 1351.21 175.552 1351.21 Q181.339 1351.21 184.718 1354.38 Q188.098 1357.55 188.098 1362.97 Q188.098 1368.55 184.626 1371.65 Q181.153 1374.73 174.834 1374.73 Q172.658 1374.73 170.39 1374.36 Q168.144 1373.99 165.737 1373.25 L165.737 1368.55 Q167.82 1369.68 170.042 1370.24 Q172.265 1370.79 174.741 1370.79 Q178.746 1370.79 181.084 1368.69 Q183.422 1366.58 183.422 1362.97 Q183.422 1359.36 181.084 1357.25 Q178.746 1355.15 174.741 1355.15 Q172.866 1355.15 170.991 1355.56 Q169.14 1355.98 167.195 1356.86 L167.195 1339.5 Z" fill="#000000" fill-rule="nonzero" fill-opacity="1"></path><path clip-path="url(#clip440)" d="M50.9921 1151.7 L80.6679 1151.7 L80.6679 1155.63 L50.9921 1155.63 L50.9921 1151.7 Z" fill="#000000" fill-rule="nonzero" fill-opacity="1"></path><path clip-path="url(#clip440)" d="M100.76 1137.04 Q97.1493 1137.04 95.3206 1140.61 Q93.515 1144.15 93.515 1151.28 Q93.515 1158.39 95.3206 1161.95 Q97.1493 1165.49 100.76 1165.49 Q104.395 1165.49 106.2 1161.95 Q108.029 1158.39 108.029 1151.28 Q108.029 1144.15 106.2 1140.61 Q104.395 1137.04 100.76 1137.04 M100.76 1133.34 Q106.571 1133.34 109.626 1137.95 Q112.705 1142.53 112.705 1151.28 Q112.705 1160.01 109.626 1164.61 Q106.571 1169.2 100.76 1169.2 Q94.9502 1169.2 91.8715 1164.61 Q88.816 1160.01 88.816 1151.28 Q88.816 1142.53 91.8715 1137.95 Q94.9502 1133.34 100.76 1133.34 Z" fill="#000000" fill-rule="nonzero" fill-opacity="1"></path><path clip-path="url(#clip440)" d="M120.922 1162.64 L125.807 1162.64 L125.807 1168.52 L120.922 1168.52 L120.922 1162.64 Z" fill="#000000" fill-rule="nonzero" fill-opacity="1"></path><path clip-path="url(#clip440)" d="M136.038 1133.96 L154.394 1133.96 L154.394 1137.9 L140.32 1137.9 L140.32 1146.37 Q141.339 1146.02 142.357 1145.86 Q143.376 1145.68 144.394 1145.68 Q150.181 1145.68 153.561 1148.85 Q156.941 1152.02 156.941 1157.44 Q156.941 1163.01 153.468 1166.12 Q149.996 1169.2 143.677 1169.2 Q141.501 1169.2 139.232 1168.83 Q136.987 1168.45 134.58 1167.71 L134.58 1163.01 Q136.663 1164.15 138.885 1164.7 Q141.107 1165.26 143.584 1165.26 Q147.589 1165.26 149.927 1163.15 Q152.265 1161.05 152.265 1157.44 Q152.265 1153.83 149.927 1151.72 Q147.589 1149.61 143.584 1149.61 Q141.709 1149.61 139.834 1150.03 Q137.982 1150.45 136.038 1151.33 L136.038 1133.96 Z" fill="#000000" fill-rule="nonzero" fill-opacity="1"></path><path clip-path="url(#clip440)" d="M176.153 1137.04 Q172.542 1137.04 170.714 1140.61 Q168.908 1144.15 168.908 1151.28 Q168.908 1158.39 170.714 1161.95 Q172.542 1165.49 176.153 1165.49 Q179.788 1165.49 181.593 1161.95 Q183.422 1158.39 183.422 1151.28 Q183.422 1144.15 181.593 1140.61 Q179.788 1137.04 176.153 1137.04 M176.153 1133.34 Q181.964 1133.34 185.019 1137.95 Q188.098 1142.53 188.098 1151.28 Q188.098 1160.01 185.019 1164.61 Q181.964 1169.2 176.153 1169.2 Q170.343 1169.2 167.265 1164.61 Q164.209 1160.01 164.209 1151.28 Q164.209 1142.53 167.265 1137.95 Q170.343 1133.34 176.153 1133.34 Z" fill="#000000" fill-rule="nonzero" fill-opacity="1"></path><path clip-path="url(#clip440)" d="M51.9875 946.162 L81.6633 946.162 L81.6633 950.097 L51.9875 950.097 L51.9875 946.162 Z" fill="#000000" fill-rule="nonzero" fill-opacity="1"></path><path clip-path="url(#clip440)" d="M101.756 931.509 Q98.1447 931.509 96.316 935.074 Q94.5104 938.616 94.5104 945.745 Q94.5104 952.852 96.316 956.417 Q98.1447 959.958 101.756 959.958 Q105.39 959.958 107.196 956.417 Q109.024 952.852 109.024 945.745 Q109.024 938.616 107.196 935.074 Q105.39 931.509 101.756 931.509 M101.756 927.806 Q107.566 927.806 110.621 932.412 Q113.7 936.996 113.7 945.745 Q113.7 954.472 110.621 959.079 Q107.566 963.662 101.756 963.662 Q95.9456 963.662 92.8669 959.079 Q89.8114 954.472 89.8114 945.745 Q89.8114 936.996 92.8669 932.412 Q95.9456 927.806 101.756 927.806 Z" fill="#000000" fill-rule="nonzero" fill-opacity="1"></path><path clip-path="url(#clip440)" d="M121.918 957.111 L126.802 957.111 L126.802 962.991 L121.918 962.991 L121.918 957.111 Z" fill="#000000" fill-rule="nonzero" fill-opacity="1"></path><path clip-path="url(#clip440)" d="M141.015 959.056 L157.334 959.056 L157.334 962.991 L135.39 962.991 L135.39 959.056 Q138.052 956.301 142.635 951.671 Q147.242 947.019 148.422 945.676 Q150.668 943.153 151.547 941.417 Q152.45 939.658 152.45 937.968 Q152.45 935.213 150.505 933.477 Q148.584 931.741 145.482 931.741 Q143.283 931.741 140.83 932.505 Q138.399 933.269 135.621 934.82 L135.621 930.097 Q138.445 928.963 140.899 928.384 Q143.353 927.806 145.39 927.806 Q150.76 927.806 153.955 930.491 Q157.149 933.176 157.149 937.667 Q157.149 939.796 156.339 941.718 Q155.552 943.616 153.445 946.208 Q152.867 946.88 149.765 950.097 Q146.663 953.292 141.015 959.056 Z" fill="#000000" fill-rule="nonzero" fill-opacity="1"></path><path clip-path="url(#clip440)" d="M167.195 928.431 L185.552 928.431 L185.552 932.366 L171.478 932.366 L171.478 940.838 Q172.496 940.491 173.515 940.329 Q174.533 940.144 175.552 940.144 Q181.339 940.144 184.718 943.315 Q188.098 946.486 188.098 951.903 Q188.098 957.482 184.626 960.583 Q181.153 963.662 174.834 963.662 Q172.658 963.662 170.39 963.292 Q168.144 962.921 165.737 962.181 L165.737 957.482 Q167.82 958.616 170.042 959.171 Q172.265 959.727 174.741 959.727 Q178.746 959.727 181.084 957.62 Q183.422 955.514 183.422 951.903 Q183.422 948.292 181.084 946.185 Q178.746 944.079 174.741 944.079 Q172.866 944.079 170.991 944.495 Q169.14 944.912 167.195 945.792 L167.195 928.431 Z" fill="#000000" fill-rule="nonzero" fill-opacity="1"></path><path clip-path="url(#clip440)" d="M100.76 725.976 Q97.1493 725.976 95.3206 729.541 Q93.515 733.082 93.515 740.212 Q93.515 747.318 95.3206 750.883 Q97.1493 754.425 100.76 754.425 Q104.395 754.425 106.2 750.883 Q108.029 747.318 108.029 740.212 Q108.029 733.082 106.2 729.541 Q104.395 725.976 100.76 725.976 M100.76 722.272 Q106.571 722.272 109.626 726.879 Q112.705 731.462 112.705 740.212 Q112.705 748.939 109.626 753.545 Q106.571 758.129 100.76 758.129 Q94.9502 758.129 91.8715 753.545 Q88.816 748.939 88.816 740.212 Q88.816 731.462 91.8715 726.879 Q94.9502 722.272 100.76 722.272 Z" fill="#000000" fill-rule="nonzero" fill-opacity="1"></path><path clip-path="url(#clip440)" d="M120.922 751.578 L125.807 751.578 L125.807 757.457 L120.922 757.457 L120.922 751.578 Z" fill="#000000" fill-rule="nonzero" fill-opacity="1"></path><path clip-path="url(#clip440)" d="M145.992 725.976 Q142.381 725.976 140.552 729.541 Q138.746 733.082 138.746 740.212 Q138.746 747.318 140.552 750.883 Q142.381 754.425 145.992 754.425 Q149.626 754.425 151.431 750.883 Q153.26 747.318 153.26 740.212 Q153.26 733.082 151.431 729.541 Q149.626 725.976 145.992 725.976 M145.992 722.272 Q151.802 722.272 154.857 726.879 Q157.936 731.462 157.936 740.212 Q157.936 748.939 154.857 753.545 Q151.802 758.129 145.992 758.129 Q140.181 758.129 137.103 753.545 Q134.047 748.939 134.047 740.212 Q134.047 731.462 137.103 726.879 Q140.181 722.272 145.992 722.272 Z" fill="#000000" fill-rule="nonzero" fill-opacity="1"></path><path clip-path="url(#clip440)" d="M176.153 725.976 Q172.542 725.976 170.714 729.541 Q168.908 733.082 168.908 740.212 Q168.908 747.318 170.714 750.883 Q172.542 754.425 176.153 754.425 Q179.788 754.425 181.593 750.883 Q183.422 747.318 183.422 740.212 Q183.422 733.082 181.593 729.541 Q179.788 725.976 176.153 725.976 M176.153 722.272 Q181.964 722.272 185.019 726.879 Q188.098 731.462 188.098 740.212 Q188.098 748.939 185.019 753.545 Q181.964 758.129 176.153 758.129 Q170.343 758.129 167.265 753.545 Q164.209 748.939 164.209 740.212 Q164.209 731.462 167.265 726.879 Q170.343 722.272 176.153 722.272 Z" fill="#000000" fill-rule="nonzero" fill-opacity="1"></path><path clip-path="url(#clip440)" d="M101.756 520.442 Q98.1447 520.442 96.316 524.007 Q94.5104 527.549 94.5104 534.679 Q94.5104 541.785 96.316 545.35 Q98.1447 548.891 101.756 548.891 Q105.39 548.891 107.196 545.35 Q109.024 541.785 109.024 534.679 Q109.024 527.549 107.196 524.007 Q105.39 520.442 101.756 520.442 M101.756 516.739 Q107.566 516.739 110.621 521.345 Q113.7 525.929 113.7 534.679 Q113.7 543.405 110.621 548.012 Q107.566 552.595 101.756 552.595 Q95.9456 552.595 92.8669 548.012 Q89.8114 543.405 89.8114 534.679 Q89.8114 525.929 92.8669 521.345 Q95.9456 516.739 101.756 516.739 Z" fill="#000000" fill-rule="nonzero" fill-opacity="1"></path><path clip-path="url(#clip440)" d="M121.918 546.044 L126.802 546.044 L126.802 551.924 L121.918 551.924 L121.918 546.044 Z" fill="#000000" fill-rule="nonzero" fill-opacity="1"></path><path clip-path="url(#clip440)" d="M141.015 547.989 L157.334 547.989 L157.334 551.924 L135.39 551.924 L135.39 547.989 Q138.052 545.234 142.635 540.604 Q147.242 535.952 148.422 534.609 Q150.668 532.086 151.547 530.35 Q152.45 528.591 152.45 526.901 Q152.45 524.146 150.505 522.41 Q148.584 520.674 145.482 520.674 Q143.283 520.674 140.83 521.438 Q138.399 522.202 135.621 523.753 L135.621 519.03 Q138.445 517.896 140.899 517.318 Q143.353 516.739 145.39 516.739 Q150.76 516.739 153.955 519.424 Q157.149 522.109 157.149 526.6 Q157.149 528.729 156.339 530.651 Q155.552 532.549 153.445 535.141 Q152.867 535.813 149.765 539.03 Q146.663 542.225 141.015 547.989 Z" fill="#000000" fill-rule="nonzero" fill-opacity="1"></path><path clip-path="url(#clip440)" d="M167.195 517.364 L185.552 517.364 L185.552 521.299 L171.478 521.299 L171.478 529.771 Q172.496 529.424 173.515 529.262 Q174.533 529.077 175.552 529.077 Q181.339 529.077 184.718 532.248 Q188.098 535.419 188.098 540.836 Q188.098 546.415 184.626 549.516 Q181.153 552.595 174.834 552.595 Q172.658 552.595 170.39 552.225 Q168.144 551.854 165.737 551.114 L165.737 546.415 Q167.82 547.549 170.042 548.104 Q172.265 548.66 174.741 548.66 Q178.746 548.66 181.084 546.553 Q183.422 544.447 183.422 540.836 Q183.422 537.225 181.084 535.118 Q178.746 533.012 174.741 533.012 Q172.866 533.012 170.991 533.429 Q169.14 533.845 167.195 534.725 L167.195 517.364 Z" fill="#000000" fill-rule="nonzero" fill-opacity="1"></path><path clip-path="url(#clip440)" d="M100.76 314.909 Q97.1493 314.909 95.3206 318.474 Q93.515 322.015 93.515 329.145 Q93.515 336.252 95.3206 339.816 Q97.1493 343.358 100.76 343.358 Q104.395 343.358 106.2 339.816 Q108.029 336.252 108.029 329.145 Q108.029 322.015 106.2 318.474 Q104.395 314.909 100.76 314.909 M100.76 311.205 Q106.571 311.205 109.626 315.812 Q112.705 320.395 112.705 329.145 Q112.705 337.872 109.626 342.478 Q106.571 347.062 100.76 347.062 Q94.9502 347.062 91.8715 342.478 Q88.816 337.872 88.816 329.145 Q88.816 320.395 91.8715 315.812 Q94.9502 311.205 100.76 311.205 Z" fill="#000000" fill-rule="nonzero" fill-opacity="1"></path><path clip-path="url(#clip440)" d="M120.922 340.511 L125.807 340.511 L125.807 346.39 L120.922 346.39 L120.922 340.511 Z" fill="#000000" fill-rule="nonzero" fill-opacity="1"></path><path clip-path="url(#clip440)" d="M136.038 311.83 L154.394 311.83 L154.394 315.766 L140.32 315.766 L140.32 324.238 Q141.339 323.89 142.357 323.728 Q143.376 323.543 144.394 323.543 Q150.181 323.543 153.561 326.715 Q156.941 329.886 156.941 335.302 Q156.941 340.881 153.468 343.983 Q149.996 347.062 143.677 347.062 Q141.501 347.062 139.232 346.691 Q136.987 346.321 134.58 345.58 L134.58 340.881 Q136.663 342.015 138.885 342.571 Q141.107 343.126 143.584 343.126 Q147.589 343.126 149.927 341.02 Q152.265 338.914 152.265 335.302 Q152.265 331.691 149.927 329.585 Q147.589 327.478 143.584 327.478 Q141.709 327.478 139.834 327.895 Q137.982 328.312 136.038 329.191 L136.038 311.83 Z" fill="#000000" fill-rule="nonzero" fill-opacity="1"></path><path clip-path="url(#clip440)" d="M176.153 314.909 Q172.542 314.909 170.714 318.474 Q168.908 322.015 168.908 329.145 Q168.908 336.252 170.714 339.816 Q172.542 343.358 176.153 343.358 Q179.788 343.358 181.593 339.816 Q183.422 336.252 183.422 329.145 Q183.422 322.015 181.593 318.474 Q179.788 314.909 176.153 314.909 M176.153 311.205 Q181.964 311.205 185.019 315.812 Q188.098 320.395 188.098 329.145 Q188.098 337.872 185.019 342.478 Q181.964 347.062 176.153 347.062 Q170.343 347.062 167.265 342.478 Q164.209 337.872 164.209 329.145 Q164.209 320.395 167.265 315.812 Q170.343 311.205 176.153 311.205 Z" fill="#000000" fill-rule="nonzero" fill-opacity="1"></path><path clip-path="url(#clip440)" d="M101.756 109.376 Q98.1447 109.376 96.316 112.94 Q94.5104 116.482 94.5104 123.612 Q94.5104 130.718 96.316 134.283 Q98.1447 137.824 101.756 137.824 Q105.39 137.824 107.196 134.283 Q109.024 130.718 109.024 123.612 Q109.024 116.482 107.196 112.94 Q105.39 109.376 101.756 109.376 M101.756 105.672 Q107.566 105.672 110.621 110.278 Q113.7 114.862 113.7 123.612 Q113.7 132.338 110.621 136.945 Q107.566 141.528 101.756 141.528 Q95.9456 141.528 92.8669 136.945 Q89.8114 132.338 89.8114 123.612 Q89.8114 114.862 92.8669 110.278 Q95.9456 105.672 101.756 105.672 Z" fill="#000000" fill-rule="nonzero" fill-opacity="1"></path><path clip-path="url(#clip440)" d="M121.918 134.977 L126.802 134.977 L126.802 140.857 L121.918 140.857 L121.918 134.977 Z" fill="#000000" fill-rule="nonzero" fill-opacity="1"></path><path clip-path="url(#clip440)" d="M135.806 106.297 L158.029 106.297 L158.029 108.288 L145.482 140.857 L140.598 140.857 L152.404 110.232 L135.806 110.232 L135.806 106.297 Z" fill="#000000" fill-rule="nonzero" fill-opacity="1"></path><path clip-path="url(#clip440)" d="M167.195 106.297 L185.552 106.297 L185.552 110.232 L171.478 110.232 L171.478 118.704 Q172.496 118.357 173.515 118.195 Q174.533 118.01 175.552 118.01 Q181.339 118.01 184.718 121.181 Q188.098 124.352 188.098 129.769 Q188.098 135.348 184.626 138.449 Q181.153 141.528 174.834 141.528 Q172.658 141.528 170.39 141.158 Q168.144 140.787 165.737 140.047 L165.737 135.348 Q167.82 136.482 170.042 137.037 Q172.265 137.593 174.741 137.593 Q178.746 137.593 181.084 135.487 Q183.422 133.38 183.422 129.769 Q183.422 126.158 181.084 124.051 Q178.746 121.945 174.741 121.945 Q172.866 121.945 170.991 122.362 Q169.14 122.778 167.195 123.658 L167.195 106.297 Z" fill="#000000" fill-rule="nonzero" fill-opacity="1"></path><circle clip-path="url(#clip442)" cx="284.343" cy="740.177" r="14.4" fill="#009af9" fill-rule="evenodd" fill-opacity="1" stroke="#000000" stroke-opacity="1" stroke-width="3.2"></circle>
<circle clip-path="url(#clip442)" cx="353.59" cy="1300.35" r="14.4" fill="#009af9" fill-rule="evenodd" fill-opacity="1" stroke="#000000" stroke-opacity="1" stroke-width="3.2"></circle>
<circle clip-path="url(#clip442)" cx="422.837" cy="1392.38" r="14.4" fill="#009af9" fill-rule="evenodd" fill-opacity="1" stroke="#000000" stroke-opacity="1" stroke-width="3.2"></circle>
<circle clip-path="url(#clip442)" cx="492.084" cy="1445.72" r="14.4" fill="#009af9" fill-rule="evenodd" fill-opacity="1" stroke="#000000" stroke-opacity="1" stroke-width="3.2"></circle>
<circle clip-path="url(#clip442)" cx="561.332" cy="740.177" r="14.4" fill="#009af9" fill-rule="evenodd" fill-opacity="1" stroke="#000000" stroke-opacity="1" stroke-width="3.2"></circle>
<circle clip-path="url(#clip442)" cx="630.579" cy="1445.72" r="14.4" fill="#009af9" fill-rule="evenodd" fill-opacity="1" stroke="#000000" stroke-opacity="1" stroke-width="3.2"></circle>
<circle clip-path="url(#clip442)" cx="699.826" cy="87.9763" r="14.4" fill="#009af9" fill-rule="evenodd" fill-opacity="1" stroke="#000000" stroke-opacity="1" stroke-width="3.2"></circle>
<circle clip-path="url(#clip442)" cx="769.073" cy="180.007" r="14.4" fill="#009af9" fill-rule="evenodd" fill-opacity="1" stroke="#000000" stroke-opacity="1" stroke-width="3.2"></circle>
<circle clip-path="url(#clip442)" cx="838.32" cy="740.177" r="14.4" fill="#009af9" fill-rule="evenodd" fill-opacity="1" stroke="#000000" stroke-opacity="1" stroke-width="3.2"></circle>
<circle clip-path="url(#clip442)" cx="907.567" cy="1300.35" r="14.4" fill="#009af9" fill-rule="evenodd" fill-opacity="1" stroke="#000000" stroke-opacity="1" stroke-width="3.2"></circle>
<circle clip-path="url(#clip442)" cx="976.815" cy="1392.38" r="14.4" fill="#009af9" fill-rule="evenodd" fill-opacity="1" stroke="#000000" stroke-opacity="1" stroke-width="3.2"></circle>
<circle clip-path="url(#clip442)" cx="1046.06" cy="1445.72" r="14.4" fill="#009af9" fill-rule="evenodd" fill-opacity="1" stroke="#000000" stroke-opacity="1" stroke-width="3.2"></circle>
<circle clip-path="url(#clip442)" cx="1115.31" cy="740.177" r="14.4" fill="#009af9" fill-rule="evenodd" fill-opacity="1" stroke="#000000" stroke-opacity="1" stroke-width="3.2"></circle>
<circle clip-path="url(#clip442)" cx="1184.56" cy="1445.72" r="14.4" fill="#009af9" fill-rule="evenodd" fill-opacity="1" stroke="#000000" stroke-opacity="1" stroke-width="3.2"></circle>
<circle clip-path="url(#clip442)" cx="1253.8" cy="87.9763" r="14.4" fill="#009af9" fill-rule="evenodd" fill-opacity="1" stroke="#000000" stroke-opacity="1" stroke-width="3.2"></circle>
<circle clip-path="url(#clip442)" cx="1323.05" cy="180.007" r="14.4" fill="#009af9" fill-rule="evenodd" fill-opacity="1" stroke="#000000" stroke-opacity="1" stroke-width="3.2"></circle>
<circle clip-path="url(#clip442)" cx="1392.3" cy="740.177" r="14.4" fill="#009af9" fill-rule="evenodd" fill-opacity="1" stroke="#000000" stroke-opacity="1" stroke-width="3.2"></circle>
<circle clip-path="url(#clip442)" cx="1461.54" cy="1300.35" r="14.4" fill="#009af9" fill-rule="evenodd" fill-opacity="1" stroke="#000000" stroke-opacity="1" stroke-width="3.2"></circle>
<circle clip-path="url(#clip442)" cx="1530.79" cy="1392.38" r="14.4" fill="#009af9" fill-rule="evenodd" fill-opacity="1" stroke="#000000" stroke-opacity="1" stroke-width="3.2"></circle>
<circle clip-path="url(#clip442)" cx="1600.04" cy="1445.72" r="14.4" fill="#009af9" fill-rule="evenodd" fill-opacity="1" stroke="#000000" stroke-opacity="1" stroke-width="3.2"></circle>
<circle clip-path="url(#clip442)" cx="1669.29" cy="740.177" r="14.4" fill="#009af9" fill-rule="evenodd" fill-opacity="1" stroke="#000000" stroke-opacity="1" stroke-width="3.2"></circle>
<circle clip-path="url(#clip442)" cx="1738.53" cy="1445.72" r="14.4" fill="#009af9" fill-rule="evenodd" fill-opacity="1" stroke="#000000" stroke-opacity="1" stroke-width="3.2"></circle>
<circle clip-path="url(#clip442)" cx="1807.78" cy="87.9763" r="14.4" fill="#009af9" fill-rule="evenodd" fill-opacity="1" stroke="#000000" stroke-opacity="1" stroke-width="3.2"></circle>
<circle clip-path="url(#clip442)" cx="1877.03" cy="180.007" r="14.4" fill="#009af9" fill-rule="evenodd" fill-opacity="1" stroke="#000000" stroke-opacity="1" stroke-width="3.2"></circle>
<circle clip-path="url(#clip442)" cx="1946.28" cy="740.177" r="14.4" fill="#009af9" fill-rule="evenodd" fill-opacity="1" stroke="#000000" stroke-opacity="1" stroke-width="3.2"></circle>
<circle clip-path="url(#clip442)" cx="2015.52" cy="1300.35" r="14.4" fill="#009af9" fill-rule="evenodd" fill-opacity="1" stroke="#000000" stroke-opacity="1" stroke-width="3.2"></circle>
<circle clip-path="url(#clip442)" cx="2084.77" cy="1392.38" r="14.4" fill="#009af9" fill-rule="evenodd" fill-opacity="1" stroke="#000000" stroke-opacity="1" stroke-width="3.2"></circle>
<circle clip-path="url(#clip442)" cx="2154.02" cy="1445.72" r="14.4" fill="#009af9" fill-rule="evenodd" fill-opacity="1" stroke="#000000" stroke-opacity="1" stroke-width="3.2"></circle>
<circle clip-path="url(#clip442)" cx="2223.26" cy="740.177" r="14.4" fill="#009af9" fill-rule="evenodd" fill-opacity="1" stroke="#000000" stroke-opacity="1" stroke-width="3.2"></circle>
<circle clip-path="url(#clip442)" cx="2292.51" cy="1445.72" r="14.4" fill="#009af9" fill-rule="evenodd" fill-opacity="1" stroke="#000000" stroke-opacity="1" stroke-width="3.2"></circle>
<circle clip-path="url(#clip442)" cx="284.343" cy="740.177" r="14.4" fill="#e26f46" fill-rule="evenodd" fill-opacity="1" stroke="#000000" stroke-opacity="1" stroke-width="3.2"></circle>
<circle clip-path="url(#clip442)" cx="353.59" cy="1179.96" r="14.4" fill="#e26f46" fill-rule="evenodd" fill-opacity="1" stroke="#000000" stroke-opacity="1" stroke-width="3.2"></circle>
<circle clip-path="url(#clip442)" cx="422.837" cy="1230.45" r="14.4" fill="#e26f46" fill-rule="evenodd" fill-opacity="1" stroke="#000000" stroke-opacity="1" stroke-width="3.2"></circle>
<circle clip-path="url(#clip442)" cx="492.084" cy="906.062" r="14.4" fill="#e26f46" fill-rule="evenodd" fill-opacity="1" stroke="#000000" stroke-opacity="1" stroke-width="3.2"></circle>
<circle clip-path="url(#clip442)" cx="561.332" cy="809.357" r="14.4" fill="#e26f46" fill-rule="evenodd" fill-opacity="1" stroke="#000000" stroke-opacity="1" stroke-width="3.2"></circle>
<circle clip-path="url(#clip442)" cx="630.579" cy="1215.87" r="14.4" fill="#e26f46" fill-rule="evenodd" fill-opacity="1" stroke="#000000" stroke-opacity="1" stroke-width="3.2"></circle>
<circle clip-path="url(#clip442)" cx="699.826" cy="651.946" r="14.4" fill="#e26f46" fill-rule="evenodd" fill-opacity="1" stroke="#000000" stroke-opacity="1" stroke-width="3.2"></circle>
<circle clip-path="url(#clip442)" cx="769.073" cy="457.088" r="14.4" fill="#e26f46" fill-rule="evenodd" fill-opacity="1" stroke="#000000" stroke-opacity="1" stroke-width="3.2"></circle>
<circle clip-path="url(#clip442)" cx="838.32" cy="827.349" r="14.4" fill="#e26f46" fill-rule="evenodd" fill-opacity="1" stroke="#000000" stroke-opacity="1" stroke-width="3.2"></circle>
<circle clip-path="url(#clip442)" cx="907.567" cy="1174.64" r="14.4" fill="#e26f46" fill-rule="evenodd" fill-opacity="1" stroke="#000000" stroke-opacity="1" stroke-width="3.2"></circle>
<circle clip-path="url(#clip442)" cx="976.815" cy="1233.26" r="14.4" fill="#e26f46" fill-rule="evenodd" fill-opacity="1" stroke="#000000" stroke-opacity="1" stroke-width="3.2"></circle>
<circle clip-path="url(#clip442)" cx="1046.06" cy="930.766" r="14.4" fill="#e26f46" fill-rule="evenodd" fill-opacity="1" stroke="#000000" stroke-opacity="1" stroke-width="3.2"></circle>
<circle clip-path="url(#clip442)" cx="1115.31" cy="717.502" r="14.4" fill="#e26f46" fill-rule="evenodd" fill-opacity="1" stroke="#000000" stroke-opacity="1" stroke-width="3.2"></circle>
<circle clip-path="url(#clip442)" cx="1184.56" cy="1226.94" r="14.4" fill="#e26f46" fill-rule="evenodd" fill-opacity="1" stroke="#000000" stroke-opacity="1" stroke-width="3.2"></circle>
<circle clip-path="url(#clip442)" cx="1253.8" cy="586.826" r="14.4" fill="#e26f46" fill-rule="evenodd" fill-opacity="1" stroke="#000000" stroke-opacity="1" stroke-width="3.2"></circle>
<circle clip-path="url(#clip442)" cx="1323.05" cy="460.156" r="14.4" fill="#e26f46" fill-rule="evenodd" fill-opacity="1" stroke="#000000" stroke-opacity="1" stroke-width="3.2"></circle>
<circle clip-path="url(#clip442)" cx="1392.3" cy="752.327" r="14.4" fill="#e26f46" fill-rule="evenodd" fill-opacity="1" stroke="#000000" stroke-opacity="1" stroke-width="3.2"></circle>
<circle clip-path="url(#clip442)" cx="1461.54" cy="1289.35" r="14.4" fill="#e26f46" fill-rule="evenodd" fill-opacity="1" stroke="#000000" stroke-opacity="1" stroke-width="3.2"></circle>
<circle clip-path="url(#clip442)" cx="1530.79" cy="1296.22" r="14.4" fill="#e26f46" fill-rule="evenodd" fill-opacity="1" stroke="#000000" stroke-opacity="1" stroke-width="3.2"></circle>
<circle clip-path="url(#clip442)" cx="1600.04" cy="893.035" r="14.4" fill="#e26f46" fill-rule="evenodd" fill-opacity="1" stroke="#000000" stroke-opacity="1" stroke-width="3.2"></circle>
<circle clip-path="url(#clip442)" cx="1669.29" cy="459.61" r="14.4" fill="#e26f46" fill-rule="evenodd" fill-opacity="1" stroke="#000000" stroke-opacity="1" stroke-width="3.2"></circle>
<circle clip-path="url(#clip442)" cx="1738.53" cy="920.79" r="14.4" fill="#e26f46" fill-rule="evenodd" fill-opacity="1" stroke="#000000" stroke-opacity="1" stroke-width="3.2"></circle>
<circle clip-path="url(#clip442)" cx="1807.78" cy="1081.13" r="14.4" fill="#e26f46" fill-rule="evenodd" fill-opacity="1" stroke="#000000" stroke-opacity="1" stroke-width="3.2"></circle>
<circle clip-path="url(#clip442)" cx="1877.03" cy="1187.24" r="14.4" fill="#e26f46" fill-rule="evenodd" fill-opacity="1" stroke="#000000" stroke-opacity="1" stroke-width="3.2"></circle>
<circle clip-path="url(#clip442)" cx="1946.28" cy="957.968" r="14.4" fill="#e26f46" fill-rule="evenodd" fill-opacity="1" stroke="#000000" stroke-opacity="1" stroke-width="3.2"></circle>
<circle clip-path="url(#clip442)" cx="2015.52" cy="827.863" r="14.4" fill="#e26f46" fill-rule="evenodd" fill-opacity="1" stroke="#000000" stroke-opacity="1" stroke-width="3.2"></circle>
<circle clip-path="url(#clip442)" cx="2084.77" cy="1163.49" r="14.4" fill="#e26f46" fill-rule="evenodd" fill-opacity="1" stroke="#000000" stroke-opacity="1" stroke-width="3.2"></circle>
<circle clip-path="url(#clip442)" cx="2154.02" cy="593.553" r="14.4" fill="#e26f46" fill-rule="evenodd" fill-opacity="1" stroke="#000000" stroke-opacity="1" stroke-width="3.2"></circle>
<circle clip-path="url(#clip442)" cx="2223.26" cy="440.746" r="14.4" fill="#e26f46" fill-rule="evenodd" fill-opacity="1" stroke="#000000" stroke-opacity="1" stroke-width="3.2"></circle>
<circle clip-path="url(#clip442)" cx="2292.51" cy="718.317" r="14.4" fill="#e26f46" fill-rule="evenodd" fill-opacity="1" stroke="#000000" stroke-opacity="1" stroke-width="3.2"></circle>
<path clip-path="url(#clip440)" d="M1839.42 250.738 L2281.8 250.738 L2281.8 95.2176 L1839.42 95.2176  Z" fill="#ffffff" fill-rule="evenodd" fill-opacity="1"></path>
<polyline clip-path="url(#clip440)" style="stroke:#000000; stroke-linecap:round; stroke-linejoin:round; stroke-width:4; stroke-opacity:1; fill:none" points="1839.42,250.738 2281.8,250.738 2281.8,95.2176 1839.42,95.2176 1839.42,250.738 "></polyline>
<circle clip-path="url(#clip440)" cx="1934.03" cy="147.058" r="20.48" fill="#009af9" fill-rule="evenodd" fill-opacity="1" stroke="#000000" stroke-opacity="1" stroke-width="4.55111"></circle>
<path clip-path="url(#clip440)" d="M2047.55 142.347 L2047.55 128.319 L2051.81 128.319 L2051.81 164.338 L2047.55 164.338 L2047.55 160.449 Q2046.21 162.763 2044.15 163.898 Q2042.11 165.009 2039.24 165.009 Q2034.54 165.009 2031.58 161.259 Q2028.64 157.509 2028.64 151.398 Q2028.64 145.287 2031.58 141.537 Q2034.54 137.787 2039.24 137.787 Q2042.11 137.787 2044.15 138.921 Q2046.21 140.032 2047.55 142.347 M2033.03 151.398 Q2033.03 156.097 2034.96 158.782 Q2036.9 161.444 2040.28 161.444 Q2043.66 161.444 2045.6 158.782 Q2047.55 156.097 2047.55 151.398 Q2047.55 146.699 2045.6 144.037 Q2043.66 141.352 2040.28 141.352 Q2036.9 141.352 2034.96 144.037 Q2033.03 146.699 2033.03 151.398 Z" fill="#000000" fill-rule="nonzero" fill-opacity="1"></path><path clip-path="url(#clip440)" d="M2072.36 151.305 Q2067.2 151.305 2065.21 152.486 Q2063.22 153.666 2063.22 156.514 Q2063.22 158.782 2064.7 160.125 Q2066.21 161.444 2068.77 161.444 Q2072.32 161.444 2074.45 158.944 Q2076.6 156.421 2076.6 152.254 L2076.6 151.305 L2072.36 151.305 M2080.86 149.546 L2080.86 164.338 L2076.6 164.338 L2076.6 160.402 Q2075.14 162.763 2072.96 163.898 Q2070.79 165.009 2067.64 165.009 Q2063.66 165.009 2061.3 162.787 Q2058.96 160.541 2058.96 156.791 Q2058.96 152.416 2061.88 150.194 Q2064.82 147.972 2070.63 147.972 L2076.6 147.972 L2076.6 147.555 Q2076.6 144.615 2074.65 143.018 Q2072.73 141.398 2069.24 141.398 Q2067.02 141.398 2064.91 141.93 Q2062.8 142.463 2060.86 143.527 L2060.86 139.592 Q2063.2 138.69 2065.4 138.25 Q2067.59 137.787 2069.68 137.787 Q2075.3 137.787 2078.08 140.703 Q2080.86 143.62 2080.86 149.546 Z" fill="#000000" fill-rule="nonzero" fill-opacity="1"></path><path clip-path="url(#clip440)" d="M2093.84 131.051 L2093.84 138.412 L2102.62 138.412 L2102.62 141.722 L2093.84 141.722 L2093.84 155.796 Q2093.84 158.967 2094.7 159.87 Q2095.58 160.773 2098.24 160.773 L2102.62 160.773 L2102.62 164.338 L2098.24 164.338 Q2093.31 164.338 2091.44 162.509 Q2089.56 160.657 2089.56 155.796 L2089.56 141.722 L2086.44 141.722 L2086.44 138.412 L2089.56 138.412 L2089.56 131.051 L2093.84 131.051 Z" fill="#000000" fill-rule="nonzero" fill-opacity="1"></path><path clip-path="url(#clip440)" d="M2120 151.305 Q2114.84 151.305 2112.85 152.486 Q2110.86 153.666 2110.86 156.514 Q2110.86 158.782 2112.34 160.125 Q2113.84 161.444 2116.41 161.444 Q2119.96 161.444 2122.08 158.944 Q2124.24 156.421 2124.24 152.254 L2124.24 151.305 L2120 151.305 M2128.5 149.546 L2128.5 164.338 L2124.24 164.338 L2124.24 160.402 Q2122.78 162.763 2120.6 163.898 Q2118.43 165.009 2115.28 165.009 Q2111.3 165.009 2108.94 162.787 Q2106.6 160.541 2106.6 156.791 Q2106.6 152.416 2109.52 150.194 Q2112.46 147.972 2118.27 147.972 L2124.24 147.972 L2124.24 147.555 Q2124.24 144.615 2122.29 143.018 Q2120.37 141.398 2116.88 141.398 Q2114.65 141.398 2112.55 141.93 Q2110.44 142.463 2108.5 143.527 L2108.5 139.592 Q2110.83 138.69 2113.03 138.25 Q2115.23 137.787 2117.32 137.787 Q2122.94 137.787 2125.72 140.703 Q2128.5 143.62 2128.5 149.546 Z" fill="#000000" fill-rule="nonzero" fill-opacity="1"></path><circle clip-path="url(#clip440)" cx="1934.03" cy="198.898" r="20.48" fill="#e26f46" fill-rule="evenodd" fill-opacity="1" stroke="#000000" stroke-opacity="1" stroke-width="4.55111"></circle>
<path clip-path="url(#clip440)" d="M2032.92 212.289 L2032.92 226.039 L2028.64 226.039 L2028.64 190.252 L2032.92 190.252 L2032.92 194.187 Q2034.26 191.872 2036.3 190.761 Q2038.36 189.627 2041.21 189.627 Q2045.93 189.627 2048.87 193.377 Q2051.83 197.127 2051.83 203.238 Q2051.83 209.349 2048.87 213.099 Q2045.93 216.849 2041.21 216.849 Q2038.36 216.849 2036.3 215.738 Q2034.26 214.603 2032.92 212.289 M2047.41 203.238 Q2047.41 198.539 2045.46 195.877 Q2043.54 193.192 2040.16 193.192 Q2036.78 193.192 2034.84 195.877 Q2032.92 198.539 2032.92 203.238 Q2032.92 207.937 2034.84 210.622 Q2036.78 213.284 2040.16 213.284 Q2043.54 213.284 2045.46 210.622 Q2047.41 207.937 2047.41 203.238 Z" fill="#000000" fill-rule="nonzero" fill-opacity="1"></path><path clip-path="url(#clip440)" d="M2073.91 194.233 Q2073.2 193.817 2072.34 193.631 Q2071.51 193.423 2070.49 193.423 Q2066.88 193.423 2064.93 195.784 Q2063.01 198.122 2063.01 202.52 L2063.01 216.178 L2058.73 216.178 L2058.73 190.252 L2063.01 190.252 L2063.01 194.28 Q2064.35 191.918 2066.51 190.784 Q2068.66 189.627 2071.74 189.627 Q2072.18 189.627 2072.71 189.696 Q2073.24 189.743 2073.89 189.858 L2073.91 194.233 Z" fill="#000000" fill-rule="nonzero" fill-opacity="1"></path><path clip-path="url(#clip440)" d="M2099.52 202.15 L2099.52 204.233 L2079.93 204.233 Q2080.21 208.631 2082.57 210.946 Q2084.96 213.238 2089.19 213.238 Q2091.65 213.238 2093.94 212.636 Q2096.25 212.034 2098.52 210.83 L2098.52 214.858 Q2096.23 215.83 2093.82 216.34 Q2091.41 216.849 2088.94 216.849 Q2082.73 216.849 2079.1 213.238 Q2075.49 209.627 2075.49 203.469 Q2075.49 197.104 2078.91 193.377 Q2082.36 189.627 2088.2 189.627 Q2093.43 189.627 2096.46 193.006 Q2099.52 196.363 2099.52 202.15 M2095.26 200.9 Q2095.21 197.405 2093.29 195.321 Q2091.39 193.238 2088.24 193.238 Q2084.68 193.238 2082.52 195.252 Q2080.4 197.266 2080.07 200.923 L2095.26 200.9 Z" fill="#000000" fill-rule="nonzero" fill-opacity="1"></path><path clip-path="url(#clip440)" d="M2123.57 194.187 L2123.57 180.159 L2127.83 180.159 L2127.83 216.178 L2123.57 216.178 L2123.57 212.289 Q2122.22 214.603 2120.16 215.738 Q2118.13 216.849 2115.26 216.849 Q2110.56 216.849 2107.59 213.099 Q2104.65 209.349 2104.65 203.238 Q2104.65 197.127 2107.59 193.377 Q2110.56 189.627 2115.26 189.627 Q2118.13 189.627 2120.16 190.761 Q2122.22 191.872 2123.57 194.187 M2109.05 203.238 Q2109.05 207.937 2110.97 210.622 Q2112.92 213.284 2116.3 213.284 Q2119.68 213.284 2121.62 210.622 Q2123.57 207.937 2123.57 203.238 Q2123.57 198.539 2121.62 195.877 Q2119.68 193.192 2116.3 193.192 Q2112.92 193.192 2110.97 195.877 Q2109.05 198.539 2109.05 203.238 Z" fill="#000000" fill-rule="nonzero" fill-opacity="1"></path><path clip-path="url(#clip440)" d="M2136.6 190.252 L2140.86 190.252 L2140.86 216.178 L2136.6 216.178 L2136.6 190.252 M2136.6 180.159 L2140.86 180.159 L2140.86 185.553 L2136.6 185.553 L2136.6 180.159 Z" fill="#000000" fill-rule="nonzero" fill-opacity="1"></path><path clip-path="url(#clip440)" d="M2168.43 191.247 L2168.43 195.229 Q2166.62 194.233 2164.79 193.747 Q2162.99 193.238 2161.14 193.238 Q2156.99 193.238 2154.7 195.877 Q2152.41 198.492 2152.41 203.238 Q2152.41 207.983 2154.7 210.622 Q2156.99 213.238 2161.14 213.238 Q2162.99 213.238 2164.79 212.752 Q2166.62 212.242 2168.43 211.247 L2168.43 215.182 Q2166.64 216.016 2164.72 216.432 Q2162.83 216.849 2160.67 216.849 Q2154.82 216.849 2151.37 213.168 Q2147.92 209.488 2147.92 203.238 Q2147.92 196.895 2151.39 193.261 Q2154.89 189.627 2160.95 189.627 Q2162.92 189.627 2164.79 190.043 Q2166.67 190.437 2168.43 191.247 Z" fill="#000000" fill-rule="nonzero" fill-opacity="1"></path><path clip-path="url(#clip440)" d="M2180.05 182.891 L2180.05 190.252 L2188.82 190.252 L2188.82 193.562 L2180.05 193.562 L2180.05 207.636 Q2180.05 210.807 2180.9 211.71 Q2181.78 212.613 2184.45 212.613 L2188.82 212.613 L2188.82 216.178 L2184.45 216.178 Q2179.52 216.178 2177.64 214.349 Q2175.77 212.497 2175.77 207.636 L2175.77 193.562 L2172.64 193.562 L2172.64 190.252 L2175.77 190.252 L2175.77 182.891 L2180.05 182.891 Z" fill="#000000" fill-rule="nonzero" fill-opacity="1"></path><path clip-path="url(#clip440)" d="M2194.42 190.252 L2198.68 190.252 L2198.68 216.178 L2194.42 216.178 L2194.42 190.252 M2194.42 180.159 L2198.68 180.159 L2198.68 185.553 L2194.42 185.553 L2194.42 180.159 Z" fill="#000000" fill-rule="nonzero" fill-opacity="1"></path><path clip-path="url(#clip440)" d="M2217.64 193.238 Q2214.21 193.238 2212.22 195.923 Q2210.23 198.585 2210.23 203.238 Q2210.23 207.891 2212.2 210.576 Q2214.19 213.238 2217.64 213.238 Q2221.04 213.238 2223.03 210.553 Q2225.02 207.867 2225.02 203.238 Q2225.02 198.631 2223.03 195.946 Q2221.04 193.238 2217.64 193.238 M2217.64 189.627 Q2223.2 189.627 2226.37 193.238 Q2229.54 196.849 2229.54 203.238 Q2229.54 209.604 2226.37 213.238 Q2223.2 216.849 2217.64 216.849 Q2212.06 216.849 2208.89 213.238 Q2205.74 209.604 2205.74 203.238 Q2205.74 196.849 2208.89 193.238 Q2212.06 189.627 2217.64 189.627 Z" fill="#000000" fill-rule="nonzero" fill-opacity="1"></path><path clip-path="url(#clip440)" d="M2258.15 200.529 L2258.15 216.178 L2253.89 216.178 L2253.89 200.668 Q2253.89 196.988 2252.45 195.159 Q2251.02 193.33 2248.15 193.33 Q2244.7 193.33 2242.71 195.53 Q2240.72 197.729 2240.72 201.525 L2240.72 216.178 L2236.44 216.178 L2236.44 190.252 L2240.72 190.252 L2240.72 194.28 Q2242.25 191.942 2244.31 190.784 Q2246.39 189.627 2249.1 189.627 Q2253.57 189.627 2255.86 192.405 Q2258.15 195.159 2258.15 200.529 Z" fill="#000000" fill-rule="nonzero" fill-opacity="1"></path></svg>