<svg xmlns="http://www.w3.org/2000/svg" xmlns:xlink="http://www.w3.org/1999/xlink" width="600" height="400" viewBox="0 0 2400 1600">
<defs>
  <clipPath id="clip480">
    <rect x="0" y="0" width="2400" height="1600"></rect>
  </clipPath>
</defs>
<path clip-path="url(#clip480)" d="M0 1600 L2400 1600 L2400 0 L0 0  Z" fill="#ffffff" fill-rule="evenodd" fill-opacity="1"></path>
<defs>
  <clipPath id="clip481">
    <rect x="480" y="0" width="1681" height="1600"></rect>
  </clipPath>
</defs>
<path clip-path="url(#clip480)" d="M193.288 1486.45 L2352.76 1486.45 L2352.76 47.2441 L193.288 47.2441  Z" fill="#ffffff" fill-rule="evenodd" fill-opacity="1"></path>
<defs>
  <clipPath id="clip482">
    <rect x="193" y="47" width="2160" height="1440"></rect>
  </clipPath>
</defs>
<polyline clip-path="url(#clip482)" style="stroke:#000000; stroke-linecap:round; stroke-linejoin:round; stroke-width:2; stroke-opacity:0.1; fill:none" points="254.405,1486.45 254.405,47.2441 "></polyline>
<polyline clip-path="url(#clip482)" style="stroke:#000000; stroke-linecap:round; stroke-linejoin:round; stroke-width:2; stroke-opacity:0.1; fill:none" points="605.652,1486.45 605.652,47.2441 "></polyline>
<polyline clip-path="url(#clip482)" style="stroke:#000000; stroke-linecap:round; stroke-linejoin:round; stroke-width:2; stroke-opacity:0.1; fill:none" points="956.899,1486.45 956.899,47.2441 "></polyline>
<polyline clip-path="url(#clip482)" style="stroke:#000000; stroke-linecap:round; stroke-linejoin:round; stroke-width:2; stroke-opacity:0.1; fill:none" points="1308.15,1486.45 1308.15,47.2441 "></polyline>
<polyline clip-path="url(#clip482)" style="stroke:#000000; stroke-linecap:round; stroke-linejoin:round; stroke-width:2; stroke-opacity:0.1; fill:none" points="1659.39,1486.45 1659.39,47.2441 "></polyline>
<polyline clip-path="url(#clip482)" style="stroke:#000000; stroke-linecap:round; stroke-linejoin:round; stroke-width:2; stroke-opacity:0.1; fill:none" points="2010.64,1486.45 2010.64,47.2441 "></polyline>
<polyline clip-path="url(#clip482)" style="stroke:#000000; stroke-linecap:round; stroke-linejoin:round; stroke-width:2; stroke-opacity:0.1; fill:none" points="193.288,1454.7 2352.76,1454.7 "></polyline>
<polyline clip-path="url(#clip482)" style="stroke:#000000; stroke-linecap:round; stroke-linejoin:round; stroke-width:2; stroke-opacity:0.1; fill:none" points="193.288,1210.36 2352.76,1210.36 "></polyline>
<polyline clip-path="url(#clip482)" style="stroke:#000000; stroke-linecap:round; stroke-linejoin:round; stroke-width:2; stroke-opacity:0.1; fill:none" points="193.288,966.019 2352.76,966.019 "></polyline>
<polyline clip-path="url(#clip482)" style="stroke:#000000; stroke-linecap:round; stroke-linejoin:round; stroke-width:2; stroke-opacity:0.1; fill:none" points="193.288,721.677 2352.76,721.677 "></polyline>
<polyline clip-path="url(#clip482)" style="stroke:#000000; stroke-linecap:round; stroke-linejoin:round; stroke-width:2; stroke-opacity:0.1; fill:none" points="193.288,477.336 2352.76,477.336 "></polyline>
<polyline clip-path="url(#clip482)" style="stroke:#000000; stroke-linecap:round; stroke-linejoin:round; stroke-width:2; stroke-opacity:0.1; fill:none" points="193.288,232.994 2352.76,232.994 "></polyline>
<polyline clip-path="url(#clip480)" style="stroke:#000000; stroke-linecap:round; stroke-linejoin:round; stroke-width:4; stroke-opacity:1; fill:none" points="193.288,1486.45 2352.76,1486.45 "></polyline>
<polyline clip-path="url(#clip480)" style="stroke:#000000; stroke-linecap:round; stroke-linejoin:round; stroke-width:4; stroke-opacity:1; fill:none" points="254.405,1486.45 254.405,1467.55 "></polyline>
<polyline clip-path="url(#clip480)" style="stroke:#000000; stroke-linecap:round; stroke-linejoin:round; stroke-width:4; stroke-opacity:1; fill:none" points="605.652,1486.45 605.652,1467.55 "></polyline>
<polyline clip-path="url(#clip480)" style="stroke:#000000; stroke-linecap:round; stroke-linejoin:round; stroke-width:4; stroke-opacity:1; fill:none" points="956.899,1486.45 956.899,1467.55 "></polyline>
<polyline clip-path="url(#clip480)" style="stroke:#000000; stroke-linecap:round; stroke-linejoin:round; stroke-width:4; stroke-opacity:1; fill:none" points="1308.15,1486.45 1308.15,1467.55 "></polyline>
<polyline clip-path="url(#clip480)" style="stroke:#000000; stroke-linecap:round; stroke-linejoin:round; stroke-width:4; stroke-opacity:1; fill:none" points="1659.39,1486.45 1659.39,1467.55 "></polyline>
<polyline clip-path="url(#clip480)" style="stroke:#000000; stroke-linecap:round; stroke-linejoin:round; stroke-width:4; stroke-opacity:1; fill:none" points="2010.64,1486.45 2010.64,1467.55 "></polyline>
<path clip-path="url(#clip480)" d="M254.405 1517.37 Q250.794 1517.37 248.965 1520.93 Q247.16 1524.47 247.16 1531.6 Q247.16 1538.71 248.965 1542.27 Q250.794 1545.82 254.405 1545.82 Q258.039 1545.82 259.845 1542.27 Q261.673 1538.71 261.673 1531.6 Q261.673 1524.47 259.845 1520.93 Q258.039 1517.37 254.405 1517.37 M254.405 1513.66 Q260.215 1513.66 263.271 1518.27 Q266.349 1522.85 266.349 1531.6 Q266.349 1540.33 263.271 1544.94 Q260.215 1549.52 254.405 1549.52 Q248.595 1549.52 245.516 1544.94 Q242.46 1540.33 242.46 1531.6 Q242.46 1522.85 245.516 1518.27 Q248.595 1513.66 254.405 1513.66 Z" fill="#000000" fill-rule="nonzero" fill-opacity="1"></path><path clip-path="url(#clip480)" d="M595.93 1514.29 L614.286 1514.29 L614.286 1518.22 L600.212 1518.22 L600.212 1526.7 Q601.231 1526.35 602.249 1526.19 Q603.268 1526 604.286 1526 Q610.073 1526 613.453 1529.17 Q616.833 1532.34 616.833 1537.76 Q616.833 1543.34 613.36 1546.44 Q609.888 1549.52 603.569 1549.52 Q601.393 1549.52 599.124 1549.15 Q596.879 1548.78 594.472 1548.04 L594.472 1543.34 Q596.555 1544.47 598.777 1545.03 Q600.999 1545.58 603.476 1545.58 Q607.481 1545.58 609.819 1543.48 Q612.157 1541.37 612.157 1537.76 Q612.157 1534.15 609.819 1532.04 Q607.481 1529.94 603.476 1529.94 Q601.601 1529.94 599.726 1530.35 Q597.874 1530.77 595.93 1531.65 L595.93 1514.29 Z" fill="#000000" fill-rule="nonzero" fill-opacity="1"></path><path clip-path="url(#clip480)" d="M931.587 1544.91 L939.226 1544.91 L939.226 1518.55 L930.916 1520.21 L930.916 1515.95 L939.18 1514.29 L943.855 1514.29 L943.855 1544.91 L951.494 1544.91 L951.494 1548.85 L931.587 1548.85 L931.587 1544.91 Z" fill="#000000" fill-rule="nonzero" fill-opacity="1"></path><path clip-path="url(#clip480)" d="M970.939 1517.37 Q967.328 1517.37 965.499 1520.93 Q963.693 1524.47 963.693 1531.6 Q963.693 1538.71 965.499 1542.27 Q967.328 1545.82 970.939 1545.82 Q974.573 1545.82 976.378 1542.27 Q978.207 1538.71 978.207 1531.6 Q978.207 1524.47 976.378 1520.93 Q974.573 1517.37 970.939 1517.37 M970.939 1513.66 Q976.749 1513.66 979.804 1518.27 Q982.883 1522.85 982.883 1531.6 Q982.883 1540.33 979.804 1544.94 Q976.749 1549.52 970.939 1549.52 Q965.128 1549.52 962.05 1544.94 Q958.994 1540.33 958.994 1531.6 Q958.994 1522.85 962.05 1518.27 Q965.128 1513.66 970.939 1513.66 Z" fill="#000000" fill-rule="nonzero" fill-opacity="1"></path><path clip-path="url(#clip480)" d="M1283.33 1544.91 L1290.97 1544.91 L1290.97 1518.55 L1282.66 1520.21 L1282.66 1515.95 L1290.92 1514.29 L1295.6 1514.29 L1295.6 1544.91 L1303.24 1544.91 L1303.24 1548.85 L1283.33 1548.85 L1283.33 1544.91 Z" fill="#000000" fill-rule="nonzero" fill-opacity="1"></path><path clip-path="url(#clip480)" d="M1312.73 1514.29 L1331.09 1514.29 L1331.09 1518.22 L1317.01 1518.22 L1317.01 1526.7 Q1318.03 1526.35 1319.05 1526.19 Q1320.07 1526 1321.09 1526 Q1326.87 1526 1330.25 1529.17 Q1333.63 1532.34 1333.63 1537.76 Q1333.63 1543.34 1330.16 1546.44 Q1326.69 1549.52 1320.37 1549.52 Q1318.19 1549.52 1315.92 1549.15 Q1313.68 1548.78 1311.27 1548.04 L1311.27 1543.34 Q1313.35 1544.47 1315.58 1545.03 Q1317.8 1545.58 1320.28 1545.58 Q1324.28 1545.58 1326.62 1543.48 Q1328.96 1541.37 1328.96 1537.76 Q1328.96 1534.15 1326.62 1532.04 Q1324.28 1529.94 1320.28 1529.94 Q1318.4 1529.94 1316.53 1530.35 Q1314.67 1530.77 1312.73 1531.65 L1312.73 1514.29 Z" fill="#000000" fill-rule="nonzero" fill-opacity="1"></path><path clip-path="url(#clip480)" d="M1638.17 1544.91 L1654.49 1544.91 L1654.49 1548.85 L1632.54 1548.85 L1632.54 1544.91 Q1635.2 1542.16 1639.79 1537.53 Q1644.39 1532.88 1645.57 1531.53 Q1647.82 1529.01 1648.7 1527.27 Q1649.6 1525.51 1649.6 1523.82 Q1649.6 1521.07 1647.66 1519.33 Q1645.74 1517.6 1642.63 1517.6 Q1640.44 1517.6 1637.98 1518.36 Q1635.55 1519.13 1632.77 1520.68 L1632.77 1515.95 Q1635.6 1514.82 1638.05 1514.24 Q1640.51 1513.66 1642.54 1513.66 Q1647.91 1513.66 1651.11 1516.35 Q1654.3 1519.03 1654.3 1523.52 Q1654.3 1525.65 1653.49 1527.57 Q1652.7 1529.47 1650.6 1532.07 Q1650.02 1532.74 1646.92 1535.95 Q1643.82 1539.15 1638.17 1544.91 Z" fill="#000000" fill-rule="nonzero" fill-opacity="1"></path><path clip-path="url(#clip480)" d="M1674.3 1517.37 Q1670.69 1517.37 1668.86 1520.93 Q1667.06 1524.47 1667.06 1531.6 Q1667.06 1538.71 1668.86 1542.27 Q1670.69 1545.82 1674.3 1545.82 Q1677.94 1545.82 1679.74 1542.27 Q1681.57 1538.71 1681.57 1531.6 Q1681.57 1524.47 1679.74 1520.93 Q1677.94 1517.37 1674.3 1517.37 M1674.3 1513.66 Q1680.11 1513.66 1683.17 1518.27 Q1686.25 1522.85 1686.25 1531.6 Q1686.25 1540.33 1683.17 1544.94 Q1680.11 1549.52 1674.3 1549.52 Q1668.49 1549.52 1665.41 1544.94 Q1662.36 1540.33 1662.36 1531.6 Q1662.36 1522.85 1665.41 1518.27 Q1668.49 1513.66 1674.3 1513.66 Z" fill="#000000" fill-rule="nonzero" fill-opacity="1"></path><path clip-path="url(#clip480)" d="M1989.91 1544.91 L2006.23 1544.91 L2006.23 1548.85 L1984.29 1548.85 L1984.29 1544.91 Q1986.95 1542.16 1991.53 1537.53 Q1996.14 1532.88 1997.32 1531.53 Q1999.56 1529.01 2000.44 1527.27 Q2001.35 1525.51 2001.35 1523.82 Q2001.35 1521.07 1999.4 1519.33 Q1997.48 1517.6 1994.38 1517.6 Q1992.18 1517.6 1989.73 1518.36 Q1987.3 1519.13 1984.52 1520.68 L1984.52 1515.95 Q1987.34 1514.82 1989.8 1514.24 Q1992.25 1513.66 1994.29 1513.66 Q1999.66 1513.66 2002.85 1516.35 Q2006.05 1519.03 2006.05 1523.52 Q2006.05 1525.65 2005.24 1527.57 Q2004.45 1529.47 2002.34 1532.07 Q2001.76 1532.74 1998.66 1535.95 Q1995.56 1539.15 1989.91 1544.91 Z" fill="#000000" fill-rule="nonzero" fill-opacity="1"></path><path clip-path="url(#clip480)" d="M2016.09 1514.29 L2034.45 1514.29 L2034.45 1518.22 L2020.37 1518.22 L2020.37 1526.7 Q2021.39 1526.35 2022.41 1526.19 Q2023.43 1526 2024.45 1526 Q2030.24 1526 2033.62 1529.17 Q2037 1532.34 2037 1537.76 Q2037 1543.34 2033.52 1546.44 Q2030.05 1549.52 2023.73 1549.52 Q2021.56 1549.52 2019.29 1549.15 Q2017.04 1548.78 2014.63 1548.04 L2014.63 1543.34 Q2016.72 1544.47 2018.94 1545.03 Q2021.16 1545.58 2023.64 1545.58 Q2027.64 1545.58 2029.98 1543.48 Q2032.32 1541.37 2032.32 1537.76 Q2032.32 1534.15 2029.98 1532.04 Q2027.64 1529.94 2023.64 1529.94 Q2021.76 1529.94 2019.89 1530.35 Q2018.04 1530.77 2016.09 1531.65 L2016.09 1514.29 Z" fill="#000000" fill-rule="nonzero" fill-opacity="1"></path><polyline clip-path="url(#clip480)" style="stroke:#000000; stroke-linecap:round; stroke-linejoin:round; stroke-width:4; stroke-opacity:1; fill:none" points="193.288,1486.45 193.288,47.2441 "></polyline>
<polyline clip-path="url(#clip480)" style="stroke:#000000; stroke-linecap:round; stroke-linejoin:round; stroke-width:4; stroke-opacity:1; fill:none" points="193.288,1454.7 212.185,1454.7 "></polyline>
<polyline clip-path="url(#clip480)" style="stroke:#000000; stroke-linecap:round; stroke-linejoin:round; stroke-width:4; stroke-opacity:1; fill:none" points="193.288,1210.36 212.185,1210.36 "></polyline>
<polyline clip-path="url(#clip480)" style="stroke:#000000; stroke-linecap:round; stroke-linejoin:round; stroke-width:4; stroke-opacity:1; fill:none" points="193.288,966.019 212.185,966.019 "></polyline>
<polyline clip-path="url(#clip480)" style="stroke:#000000; stroke-linecap:round; stroke-linejoin:round; stroke-width:4; stroke-opacity:1; fill:none" points="193.288,721.677 212.185,721.677 "></polyline>
<polyline clip-path="url(#clip480)" style="stroke:#000000; stroke-linecap:round; stroke-linejoin:round; stroke-width:4; stroke-opacity:1; fill:none" points="193.288,477.336 212.185,477.336 "></polyline>
<polyline clip-path="url(#clip480)" style="stroke:#000000; stroke-linecap:round; stroke-linejoin:round; stroke-width:4; stroke-opacity:1; fill:none" points="193.288,232.994 212.185,232.994 "></polyline>
<path clip-path="url(#clip480)" d="M50.9921 1455.15 L80.6679 1455.15 L80.6679 1459.09 L50.9921 1459.09 L50.9921 1455.15 Z" fill="#000000" fill-rule="nonzero" fill-opacity="1"></path><path clip-path="url(#clip480)" d="M100.76 1440.5 Q97.1493 1440.5 95.3206 1444.07 Q93.515 1447.61 93.515 1454.74 Q93.515 1461.84 95.3206 1465.41 Q97.1493 1468.95 100.76 1468.95 Q104.395 1468.95 106.2 1465.41 Q108.029 1461.84 108.029 1454.74 Q108.029 1447.61 106.2 1444.07 Q104.395 1440.5 100.76 1440.5 M100.76 1436.8 Q106.571 1436.8 109.626 1441.4 Q112.705 1445.99 112.705 1454.74 Q112.705 1463.46 109.626 1468.07 Q106.571 1472.65 100.76 1472.65 Q94.9502 1472.65 91.8715 1468.07 Q88.816 1463.46 88.816 1454.74 Q88.816 1445.99 91.8715 1441.4 Q94.9502 1436.8 100.76 1436.8 Z" fill="#000000" fill-rule="nonzero" fill-opacity="1"></path><path clip-path="url(#clip480)" d="M120.922 1466.1 L125.807 1466.1 L125.807 1471.98 L120.922 1471.98 L120.922 1466.1 Z" fill="#000000" fill-rule="nonzero" fill-opacity="1"></path><path clip-path="url(#clip480)" d="M150.158 1453.35 Q153.515 1454.07 155.39 1456.33 Q157.288 1458.6 157.288 1461.94 Q157.288 1467.05 153.769 1469.85 Q150.251 1472.65 143.769 1472.65 Q141.593 1472.65 139.279 1472.21 Q136.987 1471.8 134.533 1470.94 L134.533 1466.43 Q136.478 1467.56 138.793 1468.14 Q141.107 1468.72 143.631 1468.72 Q148.029 1468.72 150.32 1466.98 Q152.635 1465.25 152.635 1461.94 Q152.635 1458.88 150.482 1457.17 Q148.353 1455.43 144.533 1455.43 L140.506 1455.43 L140.506 1451.59 L144.718 1451.59 Q148.168 1451.59 149.996 1450.22 Q151.825 1448.84 151.825 1446.24 Q151.825 1443.58 149.927 1442.17 Q148.052 1440.73 144.533 1440.73 Q142.612 1440.73 140.413 1441.15 Q138.214 1441.57 135.575 1442.45 L135.575 1438.28 Q138.237 1437.54 140.552 1437.17 Q142.89 1436.8 144.95 1436.8 Q150.274 1436.8 153.376 1439.23 Q156.478 1441.64 156.478 1445.76 Q156.478 1448.63 154.834 1450.62 Q153.191 1452.58 150.158 1453.35 Z" fill="#000000" fill-rule="nonzero" fill-opacity="1"></path><path clip-path="url(#clip480)" d="M51.9412 1210.81 L81.617 1210.81 L81.617 1214.75 L51.9412 1214.75 L51.9412 1210.81 Z" fill="#000000" fill-rule="nonzero" fill-opacity="1"></path><path clip-path="url(#clip480)" d="M101.709 1196.16 Q98.0984 1196.16 96.2697 1199.72 Q94.4641 1203.27 94.4641 1210.4 Q94.4641 1217.5 96.2697 1221.07 Q98.0984 1224.61 101.709 1224.61 Q105.344 1224.61 107.149 1221.07 Q108.978 1217.5 108.978 1210.4 Q108.978 1203.27 107.149 1199.72 Q105.344 1196.16 101.709 1196.16 M101.709 1192.46 Q107.52 1192.46 110.575 1197.06 Q113.654 1201.65 113.654 1210.4 Q113.654 1219.12 110.575 1223.73 Q107.52 1228.31 101.709 1228.31 Q95.8993 1228.31 92.8206 1223.73 Q89.7651 1219.12 89.7651 1210.4 Q89.7651 1201.65 92.8206 1197.06 Q95.8993 1192.46 101.709 1192.46 Z" fill="#000000" fill-rule="nonzero" fill-opacity="1"></path><path clip-path="url(#clip480)" d="M121.871 1221.76 L126.756 1221.76 L126.756 1227.64 L121.871 1227.64 L121.871 1221.76 Z" fill="#000000" fill-rule="nonzero" fill-opacity="1"></path><path clip-path="url(#clip480)" d="M140.968 1223.71 L157.288 1223.71 L157.288 1227.64 L135.344 1227.64 L135.344 1223.71 Q138.006 1220.95 142.589 1216.32 Q147.195 1211.67 148.376 1210.33 Q150.621 1207.8 151.501 1206.07 Q152.404 1204.31 152.404 1202.62 Q152.404 1199.86 150.459 1198.13 Q148.538 1196.39 145.436 1196.39 Q143.237 1196.39 140.783 1197.16 Q138.353 1197.92 135.575 1199.47 L135.575 1194.75 Q138.399 1193.61 140.853 1193.03 Q143.306 1192.46 145.343 1192.46 Q150.714 1192.46 153.908 1195.14 Q157.103 1197.83 157.103 1202.32 Q157.103 1204.45 156.292 1206.37 Q155.505 1208.27 153.399 1210.86 Q152.82 1211.53 149.718 1214.75 Q146.617 1217.94 140.968 1223.71 Z" fill="#000000" fill-rule="nonzero" fill-opacity="1"></path><path clip-path="url(#clip480)" d="M51.5708 966.471 L81.2466 966.471 L81.2466 970.406 L51.5708 970.406 L51.5708 966.471 Z" fill="#000000" fill-rule="nonzero" fill-opacity="1"></path><path clip-path="url(#clip480)" d="M101.339 951.818 Q97.728 951.818 95.8993 955.383 Q94.0937 958.924 94.0937 966.054 Q94.0937 973.16 95.8993 976.725 Q97.728 980.267 101.339 980.267 Q104.973 980.267 106.779 976.725 Q108.608 973.16 108.608 966.054 Q108.608 958.924 106.779 955.383 Q104.973 951.818 101.339 951.818 M101.339 948.114 Q107.149 948.114 110.205 952.721 Q113.283 957.304 113.283 966.054 Q113.283 974.781 110.205 979.387 Q107.149 983.971 101.339 983.971 Q95.5289 983.971 92.4502 979.387 Q89.3947 974.781 89.3947 966.054 Q89.3947 957.304 92.4502 952.721 Q95.5289 948.114 101.339 948.114 Z" fill="#000000" fill-rule="nonzero" fill-opacity="1"></path><path clip-path="url(#clip480)" d="M121.501 977.42 L126.385 977.42 L126.385 983.299 L121.501 983.299 L121.501 977.42 Z" fill="#000000" fill-rule="nonzero" fill-opacity="1"></path><path clip-path="url(#clip480)" d="M137.381 979.364 L145.019 979.364 L145.019 952.999 L136.709 954.665 L136.709 950.406 L144.973 948.739 L149.649 948.739 L149.649 979.364 L157.288 979.364 L157.288 983.299 L137.381 983.299 L137.381 979.364 Z" fill="#000000" fill-rule="nonzero" fill-opacity="1"></path><path clip-path="url(#clip480)" d="M100.112 707.476 Q96.5011 707.476 94.6724 711.041 Q92.8669 714.583 92.8669 721.712 Q92.8669 728.819 94.6724 732.383 Q96.5011 735.925 100.112 735.925 Q103.746 735.925 105.552 732.383 Q107.381 728.819 107.381 721.712 Q107.381 714.583 105.552 711.041 Q103.746 707.476 100.112 707.476 M100.112 703.772 Q105.922 703.772 108.978 708.379 Q112.057 712.962 112.057 721.712 Q112.057 730.439 108.978 735.045 Q105.922 739.629 100.112 739.629 Q94.3021 739.629 91.2234 735.045 Q88.1679 730.439 88.1679 721.712 Q88.1679 712.962 91.2234 708.379 Q94.3021 703.772 100.112 703.772 Z" fill="#000000" fill-rule="nonzero" fill-opacity="1"></path><path clip-path="url(#clip480)" d="M120.274 733.078 L125.158 733.078 L125.158 738.957 L120.274 738.957 L120.274 733.078 Z" fill="#000000" fill-rule="nonzero" fill-opacity="1"></path><path clip-path="url(#clip480)" d="M145.343 707.476 Q141.732 707.476 139.904 711.041 Q138.098 714.583 138.098 721.712 Q138.098 728.819 139.904 732.383 Q141.732 735.925 145.343 735.925 Q148.978 735.925 150.783 732.383 Q152.612 728.819 152.612 721.712 Q152.612 714.583 150.783 711.041 Q148.978 707.476 145.343 707.476 M145.343 703.772 Q151.154 703.772 154.209 708.379 Q157.288 712.962 157.288 721.712 Q157.288 730.439 154.209 735.045 Q151.154 739.629 145.343 739.629 Q139.533 739.629 136.455 735.045 Q133.399 730.439 133.399 721.712 Q133.399 712.962 136.455 708.379 Q139.533 703.772 145.343 703.772 Z" fill="#000000" fill-rule="nonzero" fill-opacity="1"></path><path clip-path="url(#clip480)" d="M101.339 463.134 Q97.728 463.134 95.8993 466.699 Q94.0937 470.241 94.0937 477.37 Q94.0937 484.477 95.8993 488.042 Q97.728 491.583 101.339 491.583 Q104.973 491.583 106.779 488.042 Q108.608 484.477 108.608 477.37 Q108.608 470.241 106.779 466.699 Q104.973 463.134 101.339 463.134 M101.339 459.431 Q107.149 459.431 110.205 464.037 Q113.283 468.62 113.283 477.37 Q113.283 486.097 110.205 490.704 Q107.149 495.287 101.339 495.287 Q95.5289 495.287 92.4502 490.704 Q89.3947 486.097 89.3947 477.37 Q89.3947 468.62 92.4502 464.037 Q95.5289 459.431 101.339 459.431 Z" fill="#000000" fill-rule="nonzero" fill-opacity="1"></path><path clip-path="url(#clip480)" d="M121.501 488.736 L126.385 488.736 L126.385 494.616 L121.501 494.616 L121.501 488.736 Z" fill="#000000" fill-rule="nonzero" fill-opacity="1"></path><path clip-path="url(#clip480)" d="M137.381 490.68 L145.019 490.68 L145.019 464.315 L136.709 465.981 L136.709 461.722 L144.973 460.056 L149.649 460.056 L149.649 490.68 L157.288 490.68 L157.288 494.616 L137.381 494.616 L137.381 490.68 Z" fill="#000000" fill-rule="nonzero" fill-opacity="1"></path><path clip-path="url(#clip480)" d="M101.709 218.792 Q98.0984 218.792 96.2697 222.357 Q94.4641 225.899 94.4641 233.028 Q94.4641 240.135 96.2697 243.7 Q98.0984 247.241 101.709 247.241 Q105.344 247.241 107.149 243.7 Q108.978 240.135 108.978 233.028 Q108.978 225.899 107.149 222.357 Q105.344 218.792 101.709 218.792 M101.709 215.089 Q107.52 215.089 110.575 219.695 Q113.654 224.278 113.654 233.028 Q113.654 241.755 110.575 246.362 Q107.52 250.945 101.709 250.945 Q95.8993 250.945 92.8206 246.362 Q89.7651 241.755 89.7651 233.028 Q89.7651 224.278 92.8206 219.695 Q95.8993 215.089 101.709 215.089 Z" fill="#000000" fill-rule="nonzero" fill-opacity="1"></path><path clip-path="url(#clip480)" d="M121.871 244.394 L126.756 244.394 L126.756 250.274 L121.871 250.274 L121.871 244.394 Z" fill="#000000" fill-rule="nonzero" fill-opacity="1"></path><path clip-path="url(#clip480)" d="M140.968 246.339 L157.288 246.339 L157.288 250.274 L135.344 250.274 L135.344 246.339 Q138.006 243.584 142.589 238.954 Q147.195 234.302 148.376 232.959 Q150.621 230.436 151.501 228.7 Q152.404 226.94 152.404 225.251 Q152.404 222.496 150.459 220.76 Q148.538 219.024 145.436 219.024 Q143.237 219.024 140.783 219.788 Q138.353 220.552 135.575 222.103 L135.575 217.38 Q138.399 216.246 140.853 215.667 Q143.306 215.089 145.343 215.089 Q150.714 215.089 153.908 217.774 Q157.103 220.459 157.103 224.95 Q157.103 227.079 156.292 229.001 Q155.505 230.899 153.399 233.491 Q152.82 234.163 149.718 237.38 Q146.617 240.575 140.968 246.339 Z" fill="#000000" fill-rule="nonzero" fill-opacity="1"></path><circle clip-path="url(#clip482)" cx="254.405" cy="721.677" r="14.4" fill="#009af9" fill-rule="evenodd" fill-opacity="1" stroke="#000000" stroke-opacity="1" stroke-width="3.2"></circle>
<circle clip-path="url(#clip482)" cx="324.654" cy="152.63" r="14.4" fill="#009af9" fill-rule="evenodd" fill-opacity="1" stroke="#000000" stroke-opacity="1" stroke-width="3.2"></circle>
<circle clip-path="url(#clip482)" cx="394.904" cy="1445.72" r="14.4" fill="#009af9" fill-rule="evenodd" fill-opacity="1" stroke="#000000" stroke-opacity="1" stroke-width="3.2"></circle>
<circle clip-path="url(#clip482)" cx="465.153" cy="721.677" r="14.4" fill="#009af9" fill-rule="evenodd" fill-opacity="1" stroke="#000000" stroke-opacity="1" stroke-width="3.2"></circle>
<circle clip-path="url(#clip482)" cx="535.403" cy="721.677" r="14.4" fill="#009af9" fill-rule="evenodd" fill-opacity="1" stroke="#000000" stroke-opacity="1" stroke-width="3.2"></circle>
<circle clip-path="url(#clip482)" cx="605.652" cy="721.677" r="14.4" fill="#009af9" fill-rule="evenodd" fill-opacity="1" stroke="#000000" stroke-opacity="1" stroke-width="3.2"></circle>
<circle clip-path="url(#clip482)" cx="675.902" cy="1017.78" r="14.4" fill="#009af9" fill-rule="evenodd" fill-opacity="1" stroke="#000000" stroke-opacity="1" stroke-width="3.2"></circle>
<circle clip-path="url(#clip482)" cx="746.151" cy="239.08" r="14.4" fill="#009af9" fill-rule="evenodd" fill-opacity="1" stroke="#000000" stroke-opacity="1" stroke-width="3.2"></circle>
<circle clip-path="url(#clip482)" cx="816.4" cy="721.677" r="14.4" fill="#009af9" fill-rule="evenodd" fill-opacity="1" stroke="#000000" stroke-opacity="1" stroke-width="3.2"></circle>
<circle clip-path="url(#clip482)" cx="886.65" cy="152.63" r="14.4" fill="#009af9" fill-rule="evenodd" fill-opacity="1" stroke="#000000" stroke-opacity="1" stroke-width="3.2"></circle>
<circle clip-path="url(#clip482)" cx="956.899" cy="1445.72" r="14.4" fill="#009af9" fill-rule="evenodd" fill-opacity="1" stroke="#000000" stroke-opacity="1" stroke-width="3.2"></circle>
<circle clip-path="url(#clip482)" cx="1027.15" cy="721.677" r="14.4" fill="#009af9" fill-rule="evenodd" fill-opacity="1" stroke="#000000" stroke-opacity="1" stroke-width="3.2"></circle>
<circle clip-path="url(#clip482)" cx="1097.4" cy="721.677" r="14.4" fill="#009af9" fill-rule="evenodd" fill-opacity="1" stroke="#000000" stroke-opacity="1" stroke-width="3.2"></circle>
<circle clip-path="url(#clip482)" cx="1167.65" cy="721.677" r="14.4" fill="#009af9" fill-rule="evenodd" fill-opacity="1" stroke="#000000" stroke-opacity="1" stroke-width="3.2"></circle>
<circle clip-path="url(#clip482)" cx="1237.9" cy="1017.78" r="14.4" fill="#009af9" fill-rule="evenodd" fill-opacity="1" stroke="#000000" stroke-opacity="1" stroke-width="3.2"></circle>
<circle clip-path="url(#clip482)" cx="1308.15" cy="239.08" r="14.4" fill="#009af9" fill-rule="evenodd" fill-opacity="1" stroke="#000000" stroke-opacity="1" stroke-width="3.2"></circle>
<circle clip-path="url(#clip482)" cx="1378.4" cy="721.677" r="14.4" fill="#009af9" fill-rule="evenodd" fill-opacity="1" stroke="#000000" stroke-opacity="1" stroke-width="3.2"></circle>
<circle clip-path="url(#clip482)" cx="1448.65" cy="152.63" r="14.4" fill="#009af9" fill-rule="evenodd" fill-opacity="1" stroke="#000000" stroke-opacity="1" stroke-width="3.2"></circle>
<circle clip-path="url(#clip482)" cx="1518.89" cy="1445.72" r="14.4" fill="#009af9" fill-rule="evenodd" fill-opacity="1" stroke="#000000" stroke-opacity="1" stroke-width="3.2"></circle>
<circle clip-path="url(#clip482)" cx="1589.14" cy="721.677" r="14.4" fill="#009af9" fill-rule="evenodd" fill-opacity="1" stroke="#000000" stroke-opacity="1" stroke-width="3.2"></circle>
<circle clip-path="url(#clip482)" cx="1659.39" cy="721.677" r="14.4" fill="#009af9" fill-rule="evenodd" fill-opacity="1" stroke="#000000" stroke-opacity="1" stroke-width="3.2"></circle>
<circle clip-path="url(#clip482)" cx="1729.64" cy="721.677" r="14.4" fill="#009af9" fill-rule="evenodd" fill-opacity="1" stroke="#000000" stroke-opacity="1" stroke-width="3.2"></circle>
<circle clip-path="url(#clip482)" cx="1799.89" cy="1017.78" r="14.4" fill="#009af9" fill-rule="evenodd" fill-opacity="1" stroke="#000000" stroke-opacity="1" stroke-width="3.2"></circle>
<circle clip-path="url(#clip482)" cx="1870.14" cy="239.08" r="14.4" fill="#009af9" fill-rule="evenodd" fill-opacity="1" stroke="#000000" stroke-opacity="1" stroke-width="3.2"></circle>
<circle clip-path="url(#clip482)" cx="1940.39" cy="721.677" r="14.4" fill="#009af9" fill-rule="evenodd" fill-opacity="1" stroke="#000000" stroke-opacity="1" stroke-width="3.2"></circle>
<circle clip-path="url(#clip482)" cx="2010.64" cy="152.63" r="14.4" fill="#009af9" fill-rule="evenodd" fill-opacity="1" stroke="#000000" stroke-opacity="1" stroke-width="3.2"></circle>
<circle clip-path="url(#clip482)" cx="2080.89" cy="1445.72" r="14.4" fill="#009af9" fill-rule="evenodd" fill-opacity="1" stroke="#000000" stroke-opacity="1" stroke-width="3.2"></circle>
<circle clip-path="url(#clip482)" cx="2151.14" cy="721.677" r="14.4" fill="#009af9" fill-rule="evenodd" fill-opacity="1" stroke="#000000" stroke-opacity="1" stroke-width="3.2"></circle>
<circle clip-path="url(#clip482)" cx="2221.39" cy="721.677" r="14.4" fill="#009af9" fill-rule="evenodd" fill-opacity="1" stroke="#000000" stroke-opacity="1" stroke-width="3.2"></circle>
<circle clip-path="url(#clip482)" cx="2291.64" cy="721.677" r="14.4" fill="#009af9" fill-rule="evenodd" fill-opacity="1" stroke="#000000" stroke-opacity="1" stroke-width="3.2"></circle>
<circle clip-path="url(#clip482)" cx="254.405" cy="721.677" r="14.4" fill="#e26f46" fill-rule="evenodd" fill-opacity="1" stroke="#000000" stroke-opacity="1" stroke-width="3.2"></circle>
<circle clip-path="url(#clip482)" cx="324.654" cy="332.907" r="14.4" fill="#e26f46" fill-rule="evenodd" fill-opacity="1" stroke="#000000" stroke-opacity="1" stroke-width="3.2"></circle>
<circle clip-path="url(#clip482)" cx="394.904" cy="1420.24" r="14.4" fill="#e26f46" fill-rule="evenodd" fill-opacity="1" stroke="#000000" stroke-opacity="1" stroke-width="3.2"></circle>
<circle clip-path="url(#clip482)" cx="465.153" cy="1151.12" r="14.4" fill="#e26f46" fill-rule="evenodd" fill-opacity="1" stroke="#000000" stroke-opacity="1" stroke-width="3.2"></circle>
<circle clip-path="url(#clip482)" cx="535.403" cy="755.147" r="14.4" fill="#e26f46" fill-rule="evenodd" fill-opacity="1" stroke="#000000" stroke-opacity="1" stroke-width="3.2"></circle>
<circle clip-path="url(#clip482)" cx="605.652" cy="662.314" r="14.4" fill="#e26f46" fill-rule="evenodd" fill-opacity="1" stroke="#000000" stroke-opacity="1" stroke-width="3.2"></circle>
<circle clip-path="url(#clip482)" cx="675.902" cy="251.015" r="14.4" fill="#e26f46" fill-rule="evenodd" fill-opacity="1" stroke="#000000" stroke-opacity="1" stroke-width="3.2"></circle>
<circle clip-path="url(#clip482)" cx="746.151" cy="87.9763" r="14.4" fill="#e26f46" fill-rule="evenodd" fill-opacity="1" stroke="#000000" stroke-opacity="1" stroke-width="3.2"></circle>
<circle clip-path="url(#clip482)" cx="816.4" cy="208.706" r="14.4" fill="#e26f46" fill-rule="evenodd" fill-opacity="1" stroke="#000000" stroke-opacity="1" stroke-width="3.2"></circle>
<circle clip-path="url(#clip482)" cx="886.65" cy="656.218" r="14.4" fill="#e26f46" fill-rule="evenodd" fill-opacity="1" stroke="#000000" stroke-opacity="1" stroke-width="3.2"></circle>
<circle clip-path="url(#clip482)" cx="956.899" cy="901.343" r="14.4" fill="#e26f46" fill-rule="evenodd" fill-opacity="1" stroke="#000000" stroke-opacity="1" stroke-width="3.2"></circle>
<circle clip-path="url(#clip482)" cx="1027.15" cy="816.306" r="14.4" fill="#e26f46" fill-rule="evenodd" fill-opacity="1" stroke="#000000" stroke-opacity="1" stroke-width="3.2"></circle>
<circle clip-path="url(#clip482)" cx="1097.4" cy="757.478" r="14.4" fill="#e26f46" fill-rule="evenodd" fill-opacity="1" stroke="#000000" stroke-opacity="1" stroke-width="3.2"></circle>
<circle clip-path="url(#clip482)" cx="1167.65" cy="517.539" r="14.4" fill="#e26f46" fill-rule="evenodd" fill-opacity="1" stroke="#000000" stroke-opacity="1" stroke-width="3.2"></circle>
<circle clip-path="url(#clip482)" cx="1237.9" cy="316.631" r="14.4" fill="#e26f46" fill-rule="evenodd" fill-opacity="1" stroke="#000000" stroke-opacity="1" stroke-width="3.2"></circle>
<circle clip-path="url(#clip482)" cx="1308.15" cy="194.432" r="14.4" fill="#e26f46" fill-rule="evenodd" fill-opacity="1" stroke="#000000" stroke-opacity="1" stroke-width="3.2"></circle>
<circle clip-path="url(#clip482)" cx="1378.4" cy="297.861" r="14.4" fill="#e26f46" fill-rule="evenodd" fill-opacity="1" stroke="#000000" stroke-opacity="1" stroke-width="3.2"></circle>
<circle clip-path="url(#clip482)" cx="1448.65" cy="580.83" r="14.4" fill="#e26f46" fill-rule="evenodd" fill-opacity="1" stroke="#000000" stroke-opacity="1" stroke-width="3.2"></circle>
<circle clip-path="url(#clip482)" cx="1518.89" cy="719.615" r="14.4" fill="#e26f46" fill-rule="evenodd" fill-opacity="1" stroke="#000000" stroke-opacity="1" stroke-width="3.2"></circle>
<circle clip-path="url(#clip482)" cx="1589.14" cy="726.097" r="14.4" fill="#e26f46" fill-rule="evenodd" fill-opacity="1" stroke="#000000" stroke-opacity="1" stroke-width="3.2"></circle>
<circle clip-path="url(#clip482)" cx="1659.39" cy="663.34" r="14.4" fill="#e26f46" fill-rule="evenodd" fill-opacity="1" stroke="#000000" stroke-opacity="1" stroke-width="3.2"></circle>
<circle clip-path="url(#clip482)" cx="1729.64" cy="514.353" r="14.4" fill="#e26f46" fill-rule="evenodd" fill-opacity="1" stroke="#000000" stroke-opacity="1" stroke-width="3.2"></circle>
<circle clip-path="url(#clip482)" cx="1799.89" cy="378.796" r="14.4" fill="#e26f46" fill-rule="evenodd" fill-opacity="1" stroke="#000000" stroke-opacity="1" stroke-width="3.2"></circle>
<circle clip-path="url(#clip482)" cx="1870.14" cy="298.989" r="14.4" fill="#e26f46" fill-rule="evenodd" fill-opacity="1" stroke="#000000" stroke-opacity="1" stroke-width="3.2"></circle>
<circle clip-path="url(#clip482)" cx="1940.39" cy="354.226" r="14.4" fill="#e26f46" fill-rule="evenodd" fill-opacity="1" stroke="#000000" stroke-opacity="1" stroke-width="3.2"></circle>
<circle clip-path="url(#clip482)" cx="2010.64" cy="501.473" r="14.4" fill="#e26f46" fill-rule="evenodd" fill-opacity="1" stroke="#000000" stroke-opacity="1" stroke-width="3.2"></circle>
<circle clip-path="url(#clip482)" cx="2080.89" cy="609.144" r="14.4" fill="#e26f46" fill-rule="evenodd" fill-opacity="1" stroke="#000000" stroke-opacity="1" stroke-width="3.2"></circle>
<circle clip-path="url(#clip482)" cx="2151.14" cy="639.097" r="14.4" fill="#e26f46" fill-rule="evenodd" fill-opacity="1" stroke="#000000" stroke-opacity="1" stroke-width="3.2"></circle>
<circle clip-path="url(#clip482)" cx="2221.39" cy="604.956" r="14.4" fill="#e26f46" fill-rule="evenodd" fill-opacity="1" stroke="#000000" stroke-opacity="1" stroke-width="3.2"></circle>
<circle clip-path="url(#clip482)" cx="2291.64" cy="521.245" r="14.4" fill="#e26f46" fill-rule="evenodd" fill-opacity="1" stroke="#000000" stroke-opacity="1" stroke-width="3.2"></circle>
<path clip-path="url(#clip480)" d="M1835.31 1438.47 L2280.77 1438.47 L2280.77 1282.95 L1835.31 1282.95  Z" fill="#ffffff" fill-rule="evenodd" fill-opacity="1"></path>
<polyline clip-path="url(#clip480)" style="stroke:#000000; stroke-linecap:round; stroke-linejoin:round; stroke-width:4; stroke-opacity:1; fill:none" points="1835.31,1438.47 2280.77,1438.47 2280.77,1282.95 1835.31,1282.95 1835.31,1438.47 "></polyline>
<circle clip-path="url(#clip480)" cx="1931.29" cy="1334.79" r="20.48" fill="#009af9" fill-rule="evenodd" fill-opacity="1" stroke="#000000" stroke-opacity="1" stroke-width="4.55111"></circle>
<path clip-path="url(#clip480)" d="M2046.18 1330.08 L2046.18 1316.06 L2050.44 1316.06 L2050.44 1352.07 L2046.18 1352.07 L2046.18 1348.19 Q2044.84 1350.5 2042.78 1351.63 Q2040.74 1352.75 2037.87 1352.75 Q2033.17 1352.75 2030.21 1349 Q2027.27 1345.25 2027.27 1339.13 Q2027.27 1333.02 2030.21 1329.27 Q2033.17 1325.52 2037.87 1325.52 Q2040.74 1325.52 2042.78 1326.66 Q2044.84 1327.77 2046.18 1330.08 M2031.67 1339.13 Q2031.67 1343.83 2033.59 1346.52 Q2035.53 1349.18 2038.91 1349.18 Q2042.29 1349.18 2044.23 1346.52 Q2046.18 1343.83 2046.18 1339.13 Q2046.18 1334.44 2044.23 1331.77 Q2042.29 1329.09 2038.91 1329.09 Q2035.53 1329.09 2033.59 1331.77 Q2031.67 1334.44 2031.67 1339.13 Z" fill="#000000" fill-rule="nonzero" fill-opacity="1"></path><path clip-path="url(#clip480)" d="M2070.99 1339.04 Q2065.83 1339.04 2063.84 1340.22 Q2061.85 1341.4 2061.85 1344.25 Q2061.85 1346.52 2063.33 1347.86 Q2064.84 1349.18 2067.41 1349.18 Q2070.95 1349.18 2073.08 1346.68 Q2075.23 1344.16 2075.23 1339.99 L2075.23 1339.04 L2070.99 1339.04 M2079.49 1337.28 L2079.49 1352.07 L2075.23 1352.07 L2075.23 1348.14 Q2073.77 1350.5 2071.6 1351.63 Q2069.42 1352.75 2066.27 1352.75 Q2062.29 1352.75 2059.93 1350.52 Q2057.59 1348.28 2057.59 1344.53 Q2057.59 1340.15 2060.51 1337.93 Q2063.45 1335.71 2069.26 1335.71 L2075.23 1335.71 L2075.23 1335.29 Q2075.23 1332.35 2073.29 1330.76 Q2071.36 1329.13 2067.87 1329.13 Q2065.65 1329.13 2063.54 1329.67 Q2061.43 1330.2 2059.49 1331.26 L2059.49 1327.33 Q2061.83 1326.43 2064.03 1325.99 Q2066.23 1325.52 2068.31 1325.52 Q2073.93 1325.52 2076.71 1328.44 Q2079.49 1331.36 2079.49 1337.28 Z" fill="#000000" fill-rule="nonzero" fill-opacity="1"></path><path clip-path="url(#clip480)" d="M2092.47 1318.79 L2092.47 1326.15 L2101.25 1326.15 L2101.25 1329.46 L2092.47 1329.46 L2092.47 1343.53 Q2092.47 1346.7 2093.33 1347.61 Q2094.21 1348.51 2096.87 1348.51 L2101.25 1348.51 L2101.25 1352.07 L2096.87 1352.07 Q2091.94 1352.07 2090.07 1350.25 Q2088.19 1348.39 2088.19 1343.53 L2088.19 1329.46 L2085.07 1329.46 L2085.07 1326.15 L2088.19 1326.15 L2088.19 1318.79 L2092.47 1318.79 Z" fill="#000000" fill-rule="nonzero" fill-opacity="1"></path><path clip-path="url(#clip480)" d="M2118.63 1339.04 Q2113.47 1339.04 2111.48 1340.22 Q2109.49 1341.4 2109.49 1344.25 Q2109.49 1346.52 2110.97 1347.86 Q2112.47 1349.18 2115.04 1349.18 Q2118.59 1349.18 2120.72 1346.68 Q2122.87 1344.16 2122.87 1339.99 L2122.87 1339.04 L2118.63 1339.04 M2127.13 1337.28 L2127.13 1352.07 L2122.87 1352.07 L2122.87 1348.14 Q2121.41 1350.5 2119.23 1351.63 Q2117.06 1352.75 2113.91 1352.75 Q2109.93 1352.75 2107.57 1350.52 Q2105.23 1348.28 2105.23 1344.53 Q2105.23 1340.15 2108.15 1337.93 Q2111.09 1335.71 2116.9 1335.71 L2122.87 1335.71 L2122.87 1335.29 Q2122.87 1332.35 2120.92 1330.76 Q2119 1329.13 2115.51 1329.13 Q2113.28 1329.13 2111.18 1329.67 Q2109.07 1330.2 2107.13 1331.26 L2107.13 1327.33 Q2109.47 1326.43 2111.66 1325.99 Q2113.86 1325.52 2115.95 1325.52 Q2121.57 1325.52 2124.35 1328.44 Q2127.13 1331.36 2127.13 1337.28 Z" fill="#000000" fill-rule="nonzero" fill-opacity="1"></path><circle clip-path="url(#clip480)" cx="1931.29" cy="1386.63" r="20.48" fill="#e26f46" fill-rule="evenodd" fill-opacity="1" stroke="#000000" stroke-opacity="1" stroke-width="4.55111"></circle>
<path clip-path="url(#clip480)" d="M2031.55 1400.03 L2031.55 1413.78 L2027.27 1413.78 L2027.27 1377.99 L2031.55 1377.99 L2031.55 1381.92 Q2032.89 1379.61 2034.93 1378.5 Q2036.99 1377.36 2039.84 1377.36 Q2044.56 1377.36 2047.5 1381.11 Q2050.46 1384.86 2050.46 1390.97 Q2050.46 1397.09 2047.5 1400.84 Q2044.56 1404.59 2039.84 1404.59 Q2036.99 1404.59 2034.93 1403.47 Q2032.89 1402.34 2031.55 1400.03 M2046.04 1390.97 Q2046.04 1386.28 2044.1 1383.61 Q2042.17 1380.93 2038.79 1380.93 Q2035.41 1380.93 2033.47 1383.61 Q2031.55 1386.28 2031.55 1390.97 Q2031.55 1395.67 2033.47 1398.36 Q2035.41 1401.02 2038.79 1401.02 Q2042.17 1401.02 2044.1 1398.36 Q2046.04 1395.67 2046.04 1390.97 Z" fill="#000000" fill-rule="nonzero" fill-opacity="1"></path><path clip-path="url(#clip480)" d="M2072.54 1381.97 Q2071.83 1381.55 2070.97 1381.37 Q2070.14 1381.16 2069.12 1381.16 Q2065.51 1381.16 2063.56 1383.52 Q2061.64 1385.86 2061.64 1390.26 L2061.64 1403.91 L2057.36 1403.91 L2057.36 1377.99 L2061.64 1377.99 L2061.64 1382.02 Q2062.98 1379.66 2065.14 1378.52 Q2067.29 1377.36 2070.37 1377.36 Q2070.81 1377.36 2071.34 1377.43 Q2071.87 1377.48 2072.52 1377.6 L2072.54 1381.97 Z" fill="#000000" fill-rule="nonzero" fill-opacity="1"></path><path clip-path="url(#clip480)" d="M2098.15 1389.89 L2098.15 1391.97 L2078.56 1391.97 Q2078.84 1396.37 2081.2 1398.68 Q2083.59 1400.97 2087.82 1400.97 Q2090.28 1400.97 2092.57 1400.37 Q2094.88 1399.77 2097.15 1398.57 L2097.15 1402.59 Q2094.86 1403.57 2092.45 1404.08 Q2090.04 1404.59 2087.57 1404.59 Q2081.36 1404.59 2077.73 1400.97 Q2074.12 1397.36 2074.12 1391.21 Q2074.12 1384.84 2077.54 1381.11 Q2080.99 1377.36 2086.83 1377.36 Q2092.06 1377.36 2095.09 1380.74 Q2098.15 1384.1 2098.15 1389.89 M2093.89 1388.64 Q2093.84 1385.14 2091.92 1383.06 Q2090.02 1380.97 2086.87 1380.97 Q2083.31 1380.97 2081.16 1382.99 Q2079.03 1385 2078.7 1388.66 L2093.89 1388.64 Z" fill="#000000" fill-rule="nonzero" fill-opacity="1"></path><path clip-path="url(#clip480)" d="M2122.2 1381.92 L2122.2 1367.9 L2126.46 1367.9 L2126.46 1403.91 L2122.2 1403.91 L2122.2 1400.03 Q2120.85 1402.34 2118.79 1403.47 Q2116.76 1404.59 2113.89 1404.59 Q2109.19 1404.59 2106.22 1400.84 Q2103.28 1397.09 2103.28 1390.97 Q2103.28 1384.86 2106.22 1381.11 Q2109.19 1377.36 2113.89 1377.36 Q2116.76 1377.36 2118.79 1378.5 Q2120.85 1379.61 2122.2 1381.92 M2107.68 1390.97 Q2107.68 1395.67 2109.6 1398.36 Q2111.55 1401.02 2114.93 1401.02 Q2118.31 1401.02 2120.25 1398.36 Q2122.2 1395.67 2122.2 1390.97 Q2122.2 1386.28 2120.25 1383.61 Q2118.31 1380.93 2114.93 1380.93 Q2111.55 1380.93 2109.6 1383.61 Q2107.68 1386.28 2107.68 1390.97 Z" fill="#000000" fill-rule="nonzero" fill-opacity="1"></path><path clip-path="url(#clip480)" d="M2135.23 1377.99 L2139.49 1377.99 L2139.49 1403.91 L2135.23 1403.91 L2135.23 1377.99 M2135.23 1367.9 L2139.49 1367.9 L2139.49 1373.29 L2135.23 1373.29 L2135.23 1367.9 Z" fill="#000000" fill-rule="nonzero" fill-opacity="1"></path><path clip-path="url(#clip480)" d="M2167.06 1378.98 L2167.06 1382.97 Q2165.25 1381.97 2163.42 1381.48 Q2161.62 1380.97 2159.77 1380.97 Q2155.62 1380.97 2153.33 1383.61 Q2151.04 1386.23 2151.04 1390.97 Q2151.04 1395.72 2153.33 1398.36 Q2155.62 1400.97 2159.77 1400.97 Q2161.62 1400.97 2163.42 1400.49 Q2165.25 1399.98 2167.06 1398.98 L2167.06 1402.92 Q2165.28 1403.75 2163.35 1404.17 Q2161.46 1404.59 2159.3 1404.59 Q2153.45 1404.59 2150 1400.91 Q2146.55 1397.22 2146.55 1390.97 Q2146.55 1384.63 2150.02 1381 Q2153.52 1377.36 2159.58 1377.36 Q2161.55 1377.36 2163.42 1377.78 Q2165.3 1378.17 2167.06 1378.98 Z" fill="#000000" fill-rule="nonzero" fill-opacity="1"></path><path clip-path="url(#clip480)" d="M2178.68 1370.63 L2178.68 1377.99 L2187.45 1377.99 L2187.45 1381.3 L2178.68 1381.3 L2178.68 1395.37 Q2178.68 1398.54 2179.53 1399.45 Q2180.41 1400.35 2183.08 1400.35 L2187.45 1400.35 L2187.45 1403.91 L2183.08 1403.91 Q2178.15 1403.91 2176.27 1402.09 Q2174.4 1400.23 2174.4 1395.37 L2174.4 1381.3 L2171.27 1381.3 L2171.27 1377.99 L2174.4 1377.99 L2174.4 1370.63 L2178.68 1370.63 Z" fill="#000000" fill-rule="nonzero" fill-opacity="1"></path><path clip-path="url(#clip480)" d="M2193.05 1377.99 L2197.31 1377.99 L2197.31 1403.91 L2193.05 1403.91 L2193.05 1377.99 M2193.05 1367.9 L2197.31 1367.9 L2197.31 1373.29 L2193.05 1373.29 L2193.05 1367.9 Z" fill="#000000" fill-rule="nonzero" fill-opacity="1"></path><path clip-path="url(#clip480)" d="M2216.27 1380.97 Q2212.84 1380.97 2210.85 1383.66 Q2208.86 1386.32 2208.86 1390.97 Q2208.86 1395.63 2210.83 1398.31 Q2212.82 1400.97 2216.27 1400.97 Q2219.67 1400.97 2221.66 1398.29 Q2223.65 1395.6 2223.65 1390.97 Q2223.65 1386.37 2221.66 1383.68 Q2219.67 1380.97 2216.27 1380.97 M2216.27 1377.36 Q2221.83 1377.36 2225 1380.97 Q2228.17 1384.59 2228.17 1390.97 Q2228.17 1397.34 2225 1400.97 Q2221.83 1404.59 2216.27 1404.59 Q2210.69 1404.59 2207.52 1400.97 Q2204.37 1397.34 2204.37 1390.97 Q2204.37 1384.59 2207.52 1380.97 Q2210.69 1377.36 2216.27 1377.36 Z" fill="#000000" fill-rule="nonzero" fill-opacity="1"></path><path clip-path="url(#clip480)" d="M2256.78 1388.27 L2256.78 1403.91 L2252.52 1403.91 L2252.52 1388.41 Q2252.52 1384.72 2251.09 1382.9 Q2249.65 1381.07 2246.78 1381.07 Q2243.33 1381.07 2241.34 1383.27 Q2239.35 1385.47 2239.35 1389.26 L2239.35 1403.91 L2235.07 1403.91 L2235.07 1377.99 L2239.35 1377.99 L2239.35 1382.02 Q2240.88 1379.68 2242.94 1378.52 Q2245.02 1377.36 2247.73 1377.36 Q2252.2 1377.36 2254.49 1380.14 Q2256.78 1382.9 2256.78 1388.27 Z" fill="#000000" fill-rule="nonzero" fill-opacity="1"></path></svg>